<svg xmlns="http://www.w3.org/2000/svg" width="176.436" height="9.12" viewBox="0 0 176.436 9.12"><path d="M9.924-5.916C9.864-7.944,7.9-8.892,5.592-8.892c-3.024,0-4.86,1.668-4.86,4.56C.732-1.416,2.46.228,5.484.228c2.688,0,4.428-1,4.548-3H8.016c-.156.96-1.068,1.584-2.4,1.584A2.826,2.826,0,0,1,2.748-4.332,2.819,2.819,0,0,1,5.616-7.476c1.26,0,2.268.624,2.292,1.56Zm5.892-2.748L11.4,0h2.088L14.4-1.944h4.992l1,1.944h2.3L18.264-8.664ZM16.9-7.128,18.7-3.36H15.1Zm7.7-1.536V0h1.944V-3.24H29.16c2.244,0,3.516-.96,3.516-2.652,0-1.92-1.272-2.772-3.864-2.772Zm1.944,4.008V-7.248h1.992c1.6,0,2.124.516,2.124,1.356s-.672,1.236-1.836,1.236Zm16.02-1.416c-.072-1.86-1.56-2.82-3.96-2.82-2.22,0-3.888.936-3.888,2.808,0,1.308,1,2.148,3.048,2.424l1.776.24c1,.132,1.416.432,1.416,1.044,0,.66-.636,1.32-2.2,1.32-1.452,0-2.28-.552-2.4-1.656H34.416c0,1.836,1.536,2.94,4.08,2.94,2.88,0,4.476-1.02,4.476-2.844,0-1.248-.8-2.16-2.5-2.4l-2.484-.348c-.876-.12-1.26-.456-1.26-1.056,0-.78.864-1.188,1.692-1.188,1.44,0,2.124.468,2.2,1.536Zm2.6-2.592v5.556C45.168-.852,47.1.228,49.236.228c3.168,0,4.632-1.164,4.632-3.636V-8.664H51.924V-3.42a2.116,2.116,0,0,1-2.4,2.3,2.146,2.146,0,0,1-2.412-2.256V-8.664Zm11.316,0V0h6.708V-1.416H58.428V-8.664Zm8.6,0V0h7.08V-1.416H67.032V-3.792h4.74V-5.208h-4.74v-2.04h4.92V-8.664ZM88.512-5.916c-.06-2.028-2.028-2.976-4.332-2.976-3.024,0-4.86,1.668-4.86,4.56,0,2.916,1.728,4.56,4.752,4.56,2.688,0,4.428-1,4.548-3H86.6c-.156.96-1.068,1.584-2.4,1.584a2.826,2.826,0,0,1-2.868-3.144A2.819,2.819,0,0,1,84.2-7.476c1.26,0,2.268.624,2.292,1.56Zm12.18,1.584c0-2.964-1.788-4.56-5.052-4.56s-5.052,1.6-5.052,4.56S92.364.228,95.64.228,100.692-1.368,100.692-4.332ZM95.64-1.188A2.826,2.826,0,0,1,92.6-4.332a2.82,2.82,0,0,1,3.012-3.144,2.817,2.817,0,0,1,3.06,3.144A2.816,2.816,0,0,1,95.64-1.188Zm7.416-7.476V0h6.708V-1.416H105V-8.664Zm8.6,0V0h6.708V-1.416H113.6V-8.664Zm8.6,0V0h7.08V-1.416h-5.136V-3.792h4.74V-5.208h-4.74v-2.04h4.92V-8.664Zm18.384,2.748c-.06-2.028-2.028-2.976-4.332-2.976-3.024,0-4.86,1.668-4.86,4.56,0,2.916,1.728,4.56,4.752,4.56,2.688,0,4.428-1,4.548-3H136.74c-.156.96-1.068,1.584-2.4,1.584a2.826,2.826,0,0,1-2.868-3.144,2.819,2.819,0,0,1,2.868-3.144c1.26,0,2.268.624,2.292,1.56Zm1.512-2.748v1.416h3.3V0H145.4V-7.248h3.3V-8.664Zm10.56,0V0h1.944V-8.664Zm14.628,4.332c0-2.964-1.788-4.56-5.052-4.56s-5.052,1.6-5.052,4.56S157.02.228,160.3.228,165.348-1.368,165.348-4.332ZM160.3-1.188a2.826,2.826,0,0,1-3.036-3.144,2.82,2.82,0,0,1,3.012-3.144,2.817,2.817,0,0,1,3.06,3.144A2.816,2.816,0,0,1,160.3-1.188Zm7.452-7.476V0H169.5V-6.768h.024L174.552,0h2.616V-8.664h-1.752v6.648h-.024l-4.908-6.648Z" transform="translate(-0.732 8.892)" fill="#70ea78"/></svg>