<svg xmlns="http://www.w3.org/2000/svg" width="152" height="19.728" viewBox="0 0 152 19.728">
  <g id="Group_125" data-name="Group 125" transform="translate(-564.084 -135.619)">
    <g id="Group_24" data-name="Group 24" transform="translate(570.367 148.229)">
      <path id="Path_17" data-name="Path 17" d="M0,0C0,.4-.01.816-.028,1.239s-.05.855-.087,1.3A6.788,6.788,0,0,1-.5,4.192a4.719,4.719,0,0,1-.864,1.47,4.268,4.268,0,0,1-1.4,1.053,4.533,4.533,0,0,1-1.989.4,1.469,1.469,0,0,1-1.224-.4,1.631,1.631,0,0,1-.3-1.008v-.36a1.74,1.74,0,0,1,.028-.333,4.055,4.055,0,0,0,2.926-.835,3.909,3.909,0,0,0,.822-2.8V-12.478a1.18,1.18,0,0,1,.346-.071c.133-.01.25-.015.344-.015a4.561,4.561,0,0,1,.688.057,1.02,1.02,0,0,1,.48.26,1.616,1.616,0,0,1,.461.548A1.852,1.852,0,0,1,0-10.806Z" fill="#2b2e34"/>
    </g>
    <g id="Group_25" data-name="Group 25" transform="translate(578.546 144.157)">
      <path id="Path_18" data-name="Path 18" d="M0,0H6.542V2.22H0v6.8H7.322a1.808,1.808,0,0,1,1.369.447,1.563,1.563,0,0,1,.418,1.109,1.358,1.358,0,0,1-.016.217,1.385,1.385,0,0,0-.014.186v.2H-2.508V-8.1H8.618a.959.959,0,0,1,.058.3v.3A1.67,1.67,0,0,1,8.3-6.384a1.741,1.741,0,0,1-1.383.447H0Z" fill="#2b2e34"/>
    </g>
    <g id="Group_26" data-name="Group 26" transform="translate(603.45 151.507)">
      <path id="Path_19" data-name="Path 19" d="M0,0V-15.479a.866.866,0,0,0,.2-.028c.057,0,.128-.006.216-.014a2.656,2.656,0,0,1,.274-.014,2.161,2.161,0,0,1,.547.072,1.48,1.48,0,0,1,.534.259,1.352,1.352,0,0,1,.4.548,2.337,2.337,0,0,1,.159.937V3.833H0L-9.8-11.126V3.833h-2.335V-15.392a2.8,2.8,0,0,1,.49-.1,4.49,4.49,0,0,1,.633-.044,1.93,1.93,0,0,1,.994.216,2.107,2.107,0,0,1,.678.735Z" fill="#2b2e34"/>
    </g>
    <g id="Group_27" data-name="Group 27" transform="translate(635.429 147.356)">
      <path id="Path_20" data-name="Path 20" d="M0,0V7.983H-2.537V.059L-8.733-11.1a2.409,2.409,0,0,1,.663-.23,3.942,3.942,0,0,1,.835-.087,1.755,1.755,0,0,1,1.124.3,2.872,2.872,0,0,1,.692.879l4.18,7.924L2.941-10a4.4,4.4,0,0,1,.748-.966,1.62,1.62,0,0,1,1.181-.418,3.481,3.481,0,0,1,.635.058,6.371,6.371,0,0,1,.691.172Z" fill="#2b2e34"/>
    </g>
    <g id="Group_28" data-name="Group 28" transform="translate(653.863 143.737)">
      <path id="Path_21" data-name="Path 21" d="M0,0H6.488a1.031,1.031,0,0,1,.046.223V.75a1.739,1.739,0,0,1-.369,1.021,1.287,1.287,0,0,1-.806.417H0v9.157H-2.5V-7.916H8.608a.972.972,0,0,1,.058.3v.3A1.665,1.665,0,0,1,8.292-6.2a1.782,1.782,0,0,1-1.41.447H0Z" fill="#2b2e34"/>
    </g>
    <g id="Group_29" data-name="Group 29" transform="translate(674.132 155.082)">
      <path id="Path_22" data-name="Path 22" d="M0,0-1.765-5.183H-8.878L-10.59,0h-2.319l6.375-19.088a3.05,3.05,0,0,1,.553-.174,3.325,3.325,0,0,1,.738-.086,1.728,1.728,0,0,1,.909.245,1.665,1.665,0,0,1,.645.937L2.4,0ZM-5.322-16.411-8.3-7.227h5.928Z" fill="#2b2e34"/>
    </g>
    <g id="Group_30" data-name="Group 30" transform="translate(682.456 155.081)">
      <path id="Path_23" data-name="Path 23" d="M0,0H-2.534V-19.289a.96.96,0,0,0,.23-.029,1.975,1.975,0,0,0,.231-.014,1.845,1.845,0,0,1,.259-.015,2.349,2.349,0,0,1,.562.074,1.83,1.83,0,0,1,.589.256,1.419,1.419,0,0,1,.475.548A2.014,2.014,0,0,1,0-17.532Z" fill="#2b2e34"/>
    </g>
    <g id="Group_31" data-name="Group 31" transform="translate(699.413 141.118)">
      <path id="Path_24" data-name="Path 24" d="M0,0A6.292,6.292,0,0,1-.344,2.158,5.435,5.435,0,0,1-1.266,3.8,5.3,5.3,0,0,1-2.6,4.952a5.555,5.555,0,0,1-1.628.661l5.269,8.351a2.217,2.217,0,0,1-.661.2,4.52,4.52,0,0,1-.692.059A2.288,2.288,0,0,1-2.359,13.1L-6.852,6.076H-9.414v7.888h-2.505v-19.2c.692-.1,1.435-.161,2.233-.2S-8.127-5.5-7.4-5.5q3.943,0,5.672,1.34A4.93,4.93,0,0,1,0,0M-2.62.144a4.063,4.063,0,0,0-.331-1.756A2.518,2.518,0,0,0-3.9-2.691a4,4,0,0,0-1.5-.534,12.183,12.183,0,0,0-1.944-.143c-.46,0-.864.009-1.208.028s-.662.048-.951.087h.057v7.2H-7.37a8.442,8.442,0,0,0,1.928-.2,4.091,4.091,0,0,0,1.5-.661A3.1,3.1,0,0,0-2.964,1.9,4.044,4.044,0,0,0-2.62.144" fill="#2b2e34"/>
    </g>
    <g id="Group_32" data-name="Group 32" transform="translate(709.893 147.106)">
      <path id="Path_25" data-name="Path 25" d="M0,0V7.975H-2.534V.059L-8.723-11.085a2.393,2.393,0,0,1,.662-.229,4,4,0,0,1,.835-.086,1.753,1.753,0,0,1,1.122.3,2.906,2.906,0,0,1,.691.877L-1.238-2.3,2.937-9.989a4.406,4.406,0,0,1,.747-.966,1.632,1.632,0,0,1,1.181-.416,3.511,3.511,0,0,1,.635.057,6.133,6.133,0,0,1,.69.172Z" fill="#2b2e34"/>
    </g>
    <g id="Group_33" data-name="Group 33" transform="translate(622.204 151.507)">
      <path id="Path_26" data-name="Path 26" d="M0,0V-15.479a.866.866,0,0,0,.2-.028c.057,0,.129-.006.216-.014a2.656,2.656,0,0,1,.274-.014,2.155,2.155,0,0,1,.547.072,1.464,1.464,0,0,1,.534.259,1.352,1.352,0,0,1,.4.548,2.337,2.337,0,0,1,.159.937V3.833H0L-9.8-11.126V3.833h-2.335V-15.392a2.8,2.8,0,0,1,.49-.1,4.494,4.494,0,0,1,.634-.044,1.941,1.941,0,0,1,.995.216,2.124,2.124,0,0,1,.677.735Z" fill="#2b2e34"/>
    </g>
  </g>
</svg>
