<svg id="Layer_1" data-name="Layer 1" xmlns="http://www.w3.org/2000/svg" xmlns:xlink="http://www.w3.org/1999/xlink" viewBox="0 0 911.08 201.82"><defs><style>.cls-1{fill:none;}.cls-2{clip-path:url(#clip-path);}.cls-3{fill:#71ea78;}</style><clipPath id="clip-path" transform="translate(-27 -179.77)"><rect class="cls-1" x="27" y="179.77" width="911.08" height="201.82"/></clipPath></defs><g class="cls-2"><path class="cls-3" d="M930.21,325.84l4.91,2.74,1,2.52,1.48-.62-1-2.51,1.48-5.42-1.75.73-.92,3.7-3.26-2Zm-4.66,5.35-.76-1.91,2.05-.82c1-.42,1.58-.28,1.82.33s-.1,1.2-1.15,1.62Zm-2.68-2.4,2.64,6.64,1.49-.59-1-2.62,1.62-.65c1.47-.58,1.84-.34,2.39.87a3.87,3.87,0,0,0,.57,1l1.6-.63a6.67,6.67,0,0,1-.88-1.53c-.46-.87-.92-1.32-2.28-.84v0c1.17-.57,1.56-1.42,1.15-2.44-.47-1.19-1.61-1.43-3.27-.77Zm-3.77,1.46,2.59,6.67,1.49-.58-2.59-6.67Zm-5.46,3.43,2.47,2.4-2.79,1Zm-1.28-.88-.93,8,1.61-.59.15-1.77,3.87-1.43,1.33,1.22,1.78-.67-5.91-5.43Zm-8.8,3.17,2.38,6.75,1.52-.53-1-2.9,3.33-1.18-.39-1.1L906,338.19l-.58-1.65L909,335.3l-.39-1.1Zm-13.09,4.46,4.71,3.09.87,2.58,1.52-.51L896.7,343l1.86-5.3-1.8.61-1.18,3.62-3.12-2.18Zm-8.72,2.73,2.13,6.83,1.38-.43-1.67-5.34h0l5.63,4.1,2.06-.64-2.12-6.84-1.38.43,1.63,5.25h0l-5.5-4ZM872.23,346l2,6.86,1.38-.41-1.58-5.36h0l5.57,4.19,2.07-.62-2-6.86-1.39.41,1.56,5.27h0l-5.45-4.11Zm-7.48,2.11,1.93,6.89,5.63-1.58-.31-1.12-4.09,1.14-.53-1.89,3.77-1.06-.31-1.12-3.77,1.06-.46-1.63,3.91-1.1-.31-1.12Zm-3.58,1,1.1,4.12c.32,1.21,0,2-1.13,2.28a1.34,1.34,0,0,1-1.75-.95l-1.55.41c.45,1.56,1.79,2.15,3.7,1.64,2.35-.62,2.71-2.17,2.3-3.72l-1.11-4.19Zm-13.83,9.73-1.15-4.68,1.53-.37a2.23,2.23,0,0,1,3,1.68,2.3,2.3,0,0,1-1.83,3Zm-3-5.43,1.7,7,3.35-.82c2.78-.68,3.36-2.72,3-4.34-.55-2.26-2.29-3.19-4.68-2.6Zm-4.48,7.4a2.6,2.6,0,1,1,1.86-3.09,2.34,2.34,0,0,1-1.86,3.09m3.48-3.47c-.55-2.38-2.28-3.33-4.91-2.73s-3.77,2.23-3.22,4.61,2.28,3.34,4.92,2.73,3.76-2.22,3.21-4.61m-26.73,2.21,4,6.47,1.89-.39.7-6h0l3.13,5.17,1.93-.41,1-7.52-1.58.33-.65,5.85h0L824,358l-2,.42-.67,5.85h0l-3-5.07Zm-5.27-.92-.87,1.58,1.11-.21L813,358.3Zm1.24,7.94a2.6,2.6,0,1,1,2-3,2.33,2.33,0,0,1-2,3m3.61-3.34c-.46-2.4-2.16-3.42-4.81-2.91s-3.85,2.08-3.39,4.49,2.15,3.42,4.81,2.91,3.85-2.08,3.39-4.49m-15.07,5.25-.85-4.74,1.55-.28a2.23,2.23,0,0,1,2.89,1.87,2.3,2.3,0,0,1-2,2.87Zm-2.64-5.61,1.27,7,3.38-.61c2.82-.5,3.53-2.5,3.24-4.14-.42-2.29-2.09-3.33-4.52-2.89Zm-9.76,1.59,1.15,7.07,1.43-.23-.9-5.52h0l5,4.86,2.13-.35-1.15-7.06-1.42.23.88,5.42h0L791,364.09Zm-7.7,1.18,1.07,7.08,5.78-.88-.17-1.15-4.2.63-.29-1.94,3.87-.58-.17-1.16-3.87.58-.26-1.66,4-.61-.17-1.15Zm-7,4.25-.29-2,2.19-.31c1.12-.16,1.6.1,1.69.76s-.38,1.13-1.5,1.29Zm-2-3,1,7.09,1.59-.22-.39-2.8,1.73-.24c1.57-.22,1.87.11,2.12,1.41a4.55,4.55,0,0,0,.31,1.1l1.71-.24a6.7,6.7,0,0,1-.5-1.69c-.23-1-.58-1.5-2-1.36v0c1.27-.28,1.85-1,1.7-2.1-.18-1.27-1.23-1.77-3-1.52ZM763.5,368l.15,1.16,2.7-.35.77,5.94,1.59-.21-.77-5.93,2.71-.35-.15-1.16Zm-12.19,1.42.8,7.11,1.59-.18-.34-3.05,3.87-.44.34,3.06,1.6-.18-.8-7.11-1.6.18.33,2.89-3.87.44-.33-2.9Zm-1.65,2.47c-.22-1.67-1.92-2.28-3.81-2.08-2.49.25-3.85,1.77-3.61,4.15s1.8,3.6,4.29,3.35c2.2-.23,3.55-1.19,3.48-2.85l-1.66.17c0,.8-.74,1.39-1.84,1.5A2.6,2.6,0,0,1,746,371c1-.11,1.91.32,2,1.09Zm-17.45-.6,3.88,4.09.25,2.72,1.59-.15-.25-2.71,3-4.73-1.89.17-2,3.26-2.53-2.84Zm-7.3.59.1,1.16,4.37-.35-4.32,4.84.12,1.51,6.79-.56-.1-1.16-4.9.4,4.31-4.82-.12-1.53Zm-1.69,2.26c-.17-1.52-1.45-2.22-3.43-2.08-1.83.13-3.15,1-3,2.54.08,1.08,1,1.71,2.66,1.82l1.48.09c.83.05,1.19.27,1.23.78s-.45,1.12-1.74,1.21-1.91-.31-2.07-1.22l-1.6.12c.11,1.51,1.44,2.33,3.53,2.18,2.38-.17,3.63-1.11,3.52-2.61-.07-1-.79-1.73-2.2-1.83L719.5,375c-.73,0-1.07-.3-1.11-.79,0-.65.64-1,1.33-1.08,1.18-.09,1.78.25,1.9,1.13Zm-20.82-.82,3,7,1.93-.11,1.59-5.81h0l2.32,5.59,2-.12,2.12-7.29-1.61.1-1.52,5.69h0l-2.26-5.47-2,.12-1.54,5.68h0l-2.21-5.48Zm-5,6.4a2.6,2.6,0,1,1,2.39-2.71,2.33,2.33,0,0,1-2.39,2.71m4-2.78c-.11-2.45-1.64-3.7-4.33-3.58s-4.11,1.5-4,3.95,1.63,3.7,4.33,3.58,4.11-1.5,4-4m-18.18-2.86.25,7.15,1.44-.05-.19-5.59h0l4.34,5.44,2.16-.08-.25-7.15-1.44.05.19,5.49h0L685.49,374Zm-3.74.08.09,4.26c0,1.25-.52,1.92-1.63,1.95a1.34,1.34,0,0,1-1.48-1.34l-1.61,0c.07,1.62,1.24,2.51,3.21,2.46,2.43-.05,3.15-1.46,3.11-3.07l-.09-4.34Zm-10.2,1.45,1.52,3.1-3,0Zm-.91-1.25-3.55,7.2,1.72,0,.73-1.62,4.12-.05.85,1.59,1.9,0-3.75-7.11Zm-12.82.06v7.16H657V376h0l4.16,5.59h2.16v-7.16H661.9v5.49h0l-4-5.49Zm-11.21-.09-.05,3.53-.75.4,0,1,.76-.4,0,2.61,5.54.07V380.4l-3.93,0,0-2.29,1.91-1v-1l-1.91,1,0-2.68Zm-5.75-2-1.18,1.36,1.13,0,1.74-1.35Zm-.45,8a2.6,2.6,0,1,1,2.57-2.55,2.34,2.34,0,0,1-2.57,2.55m4.23-2.51c.05-2.45-1.4-3.8-4.09-3.85s-4.2,1.23-4.25,3.67,1.38,3.8,4.09,3.86,4.2-1.23,4.25-3.68m-16.18-4L626,381l1.6.06.13-3.77,3.12,3.88,2.12.07-3.4-4,3.26-3.12-2-.06-3.12,3,.1-3.12Zm-6.39,5.94a2.6,2.6,0,1,1,2.61-2.5,2.34,2.34,0,0,1-2.61,2.5m4.27-2.43c.1-2.44-1.32-3.82-4-3.93s-4.22,1.14-4.32,3.59,1.31,3.82,4,3.93,4.22-1.14,4.32-3.59M602,372.75l2.18,7.28,1.93.1,2.22-5.59h0l1.68,5.8,2,.11,2.92-7-1.6-.09-2.15,5.49h0l-1.63-5.69-2-.11-2.16,5.49h0l-1.59-5.69ZM591.14,372l-.52,7.13,4,.3c-.78.24-1.42.8-1.45,1.21s.39.7,1.3.77a4.59,4.59,0,0,0,1.23-.06l-.13-.48a1.68,1.68,0,0,1-.63.05c-.43,0-.72-.19-.71-.42s.41-.58,1.17-1l1.05.07.09-1.16-4.24-.31.15-2,3.9.29.09-1.17-3.91-.29.13-1.68,4.05.3.09-1.17Zm-3.94-.31-.55,7.14,1.6.12.55-7.13Zm-2.49,1.95c.07-1.53-1.08-2.43-3.06-2.6-1.83-.15-3.26.5-3.4,2-.09,1.08.67,1.84,2.34,2.21l1.45.32c.81.18,1.13.46,1.09,1s-.62,1-1.9.93-1.84-.61-1.86-1.53l-1.6-.14c-.13,1.51,1.06,2.53,3.15,2.71,2.37.2,3.75-.52,3.88-2,.09-1-.51-1.83-1.88-2.15l-2-.46c-.71-.16-1-.46-1-1s.79-.91,1.47-.85c1.19.1,1.72.53,1.7,1.41Zm-15.44-5.44L568,369.44l1.12.11,1.85-1.2Zm3.05,4.46c.12-1.67-1.42-2.62-3.31-2.81-2.49-.25-4.13,1-4.38,3.34s1,3.89,3.53,4.14c2.21.23,3.72-.44,4-2.08l-1.66-.17c-.21.78-1,1.21-2.11,1.1a2.61,2.61,0,0,1,.53-5.17c1,.11,1.81.71,1.75,1.48Zm-14.78-3.87-.81,7.11,4,.45c-.8.21-1.45.74-1.5,1.15s.36.72,1.26.82a4.57,4.57,0,0,0,1.24,0l-.11-.48a2,2,0,0,1-.64,0c-.42-.05-.71-.22-.68-.45s.43-.57,1.2-1l1,.12.13-1.16-4.22-.48.23-1.95,3.89.44.13-1.16-3.89-.44.19-1.68,4,.46.13-1.16ZM549.69,371l.26-2,2.19.28c1.13.14,1.52.51,1.44,1.17s-.67,1-1.79.86Zm-1.19-3.4-.89,7.1,1.59.2.35-2.8,1.74.22c1.57.2,1.77.59,1.67,1.92a3.89,3.89,0,0,0,0,1.14l1.71.22a6.56,6.56,0,0,1,0-1.77c0-1-.17-1.6-1.59-1.83v0c1.3.06,2-.49,2.18-1.59.16-1.27-.72-2-2.49-2.25Zm-8.45-1.14-1,7.08,1.59.22.52-3.73,2.7,4.18,2.1.29-3-4.38,3.56-2.76-2-.27-3.42,2.68.43-3.09Zm-6.35.35,1,3.3-2.94-.45Zm-.69-1.39L528.33,372l1.7.25,1-1.47,4.08.62.57,1.71,1.88.28L535,365.76Zm-10.78-1.73-.19,1.15,4.32.71L521,369.24l-.25,1.49,6.72,1.11.19-1.15-4.86-.8,5.36-3.63.25-1.51Zm-9.3,4.19-.25,1.36,1.37.26.25-1.37Zm1-5.68-.74,5.12,1.09.2,1.13-5.05Zm-8.55-1.67-1.4,7,3.94.78c-.81.15-1.51.63-1.59,1s.3.75,1.19.93a4.38,4.38,0,0,0,1.24.09l-.08-.49a1.91,1.91,0,0,1-.63,0c-.42-.09-.69-.28-.65-.51s.48-.53,1.29-.86l1,.2.23-1.14-4.16-.83.38-1.93,3.84.77.23-1.15-3.84-.76.33-1.66,4,.8.23-1.15Zm-2.29,1.85c.3-1.65-1.12-2.76-3-3.16-2.45-.52-4.22.51-4.72,2.84s.6,4,3.05,4.51c2.17.47,3.74,0,4.19-1.63l-1.63-.35a1.78,1.78,0,0,1-2.21.86,2.61,2.61,0,0,1,1.09-5.08c1,.22,1.72.9,1.58,1.66Zm-14.18-5.55-1.66,7,3.91.93c-.81.12-1.53.57-1.62,1s.26.76,1.15,1a4.23,4.23,0,0,0,1.23.14l-.06-.49a1.9,1.9,0,0,1-.63,0c-.41-.1-.68-.3-.63-.53s.5-.51,1.32-.81l1,.24.27-1.14-4.12-1,.45-1.91,3.81.91.27-1.14L489.8,360l.39-1.64,4,.94.27-1.13Zm-8,1.24.52-2,2.14.57c1.09.29,1.43.71,1.26,1.35s-.79.9-1.88.61Zm-.73-3.53-1.83,6.92,1.55.41.72-2.73,1.69.45c1.53.4,1.68.82,1.4,2.12a4.12,4.12,0,0,0-.13,1.13l1.67.45a6.51,6.51,0,0,1,.19-1.76c.16-1,.05-1.6-1.32-2v0c1.28.24,2.1-.21,2.38-1.27.33-1.24-.45-2.11-2.17-2.57Zm-7.4-2.74-2.53,6.69,1.5.57,1.33-3.52,1.71,4.67,2,.75-1.91-4.93,4.09-1.9-1.84-.69-3.94,1.85,1.11-2.92Zm-9.15-5.27-3.88,6,3.37,2.18a2,2,0,0,0-1.85.36c-.22.34,0,.8.77,1.3a4.61,4.61,0,0,0,1.11.54l.11-.48a1.85,1.85,0,0,1-.57-.26c-.36-.23-.54-.51-.42-.71s.64-.31,1.51-.33l.89.57.63-1-3.57-2.3,1.07-1.65,3.29,2.12.63-1-3.29-2.12.92-1.42,3.41,2.2.63-1Zm-2.36-2L456.7,350l1.23,1,4.58-5.49Zm-2.61.85c1.22-1.15.71-2.88-.56-4.3-1.67-1.86-3.71-2.07-5.48-.47s-1.85,3.58-.18,5.44c1.48,1.65,3.05,2.17,4.35,1.14L455.69,346a1.78,1.78,0,0,1-2.3-.6,2.61,2.61,0,0,1,3.86-3.47c.7.77.87,1.73.31,2.27Zm-9.08-14-1.92,2.87-1.52-2.56Zm.64-1.41-8,.51.88,1.48,1.76-.17,2.11,3.55-1,1.52,1,1.64,4.3-6.79Zm-3.27-5.7-3.67,2.16c-1.08.63-1.94.48-2.5-.48a1.34,1.34,0,0,1,.45-1.94l-.81-1.38c-1.39.85-1.59,2.3-.6,4,1.23,2.1,2.82,2,4.2,1.22l3.75-2.19ZM435.36,317l-1.12.81.82,1.12,1.12-.81Zm-1.21-10.37-1,5.55-2,1.81,1.07,1.2,2-1.81,5.61-.37-1.27-1.42-3.79.34.79-3.72Zm-7.63-2.48,1.32-1.57,1.69,1.43c.86.73,1,1.26.56,1.77s-1.1.46-2-.27Zm.86-3.5-4.63,5.45,1.22,1L425.8,305l1.33,1.13c1.2,1,1.16,1.47.35,2.52a4.36,4.36,0,0,0-.61,1l1.31,1.11a6.45,6.45,0,0,1,.94-1.49c.56-.81.73-1.43-.33-2.41h0c1.05.76,2,.71,2.69-.13s.51-2.09-.85-3.25Zm-4-2.78-4,5.91,1.33.91,4-5.91Zm-6.73-2.57-.18,3.44-2.61-1.42Zm-.18-1.54-6.62,4.55,1.52.82,1.43-1.05,3.62,2,0,1.81,1.67.9.2-8Zm-9.3-4.21-2.74,6.61,1.48.61,1.18-2.84,3.26,1.35.45-1.08-3.26-1.35.66-1.61,3.46,1.43.44-1.08Zm-13.67-4.75,1.92,5.29-.85,2.59,1.52.5.86-2.59,4.66-3.12-1.81-.6L396.7,289l-1.19-3.62Zm-9-2.78-2.14,6.82,1.38.44,1.67-5.34h0l2.3,6.57,2.06.65,2.14-6.83-1.38-.43-1.64,5.24h0l-2.23-6.45Zm-8.61-3.45-2.85,6.56,1.33.58,2.22-5.13h0l1.59,6.78,2,.86,2.84-6.57-1.32-.57-2.19,5h0L378,279.44Zm-5.22-4-4,5.91,4.83,3.3.66-1-3.51-2.39,1.11-1.62L373,281l.66-1-3.23-2.21.95-1.39,3.36,2.29.65-1Zm-2.31-1.85-2.8,3.21c-.82.94-1.68,1.07-2.52.34a1.33,1.33,0,0,1-.19-2l-1.21-1.06c-1.05,1.25-.78,2.69.71,4,1.83,1.59,3.31,1,4.37-.18l2.85-3.27Zm-14.31-7.08,3.95-2.76.9,1.29a2.22,2.22,0,0,1-.49,3.4,2.3,2.3,0,0,1-3.45-.62Zm4-4.74-5.87,4.09,2,2.82c1.64,2.35,3.75,2.16,5.12,1.2,1.91-1.33,2.15-3.29.74-5.31Zm-7.81-1.8a2.6,2.6,0,1,1,3.45,1.07,2.33,2.33,0,0,1-3.45-1.07m4.2,2.55c2.19-1.1,2.7-3,1.48-5.42s-3.05-3.13-5.24-2-2.7,3-1.48,5.42,3.06,3.14,5.24,2M346,236l-5.23,5.52.87,1.72,6-.86v0l-4.19,4.35.89,1.76,7.53-1-.73-1.43-5.82.87v0l4.11-4.24-.91-1.81-5.83.86h0l4.13-4.22Zm-1.58-5.92-1.79-.23.61,1,2.09.71Zm-6.92,4.07a2.6,2.6,0,1,1,3.53.72,2.34,2.34,0,0,1-3.53-.72m4.43,2.13c2.06-1.32,2.38-3.27.94-5.54s-3.35-2.82-5.42-1.5-2.39,3.26-.94,5.54,3.35,2.81,5.42,1.5m-11-11.82,3.85-2.9.95,1.27a2.22,2.22,0,0,1-.38,3.41,2.3,2.3,0,0,1-3.47-.51Zm3.82-4.88L329,223.87l2.06,2.75c1.72,2.3,3.83,2,5.16,1,1.86-1.4,2-3.36.55-5.33Zm-6.73-8-5.43,4.65.94,1.1,4.24-3.64v0l-1.54,6.79,1.41,1.64,5.43-4.66-.94-1.1-4.17,3.58v0l1.53-6.65Zm-5.7-6-5.15,5,4.06,4.21.84-.81-3-3.06,1.42-1.36,2.72,2.82.84-.82-2.72-2.81,1.21-1.17,2.82,2.92.84-.81Zm-8.05-3.13,1.38-1.52,1.64,1.48c.84.76.95,1.28.5,1.78s-1.11.43-1.95-.33Zm1-3.47-4.8,5.31,1.19,1.08,1.89-2.1,1.29,1.17c1.18,1.06,1.12,1.5.28,2.53a3.9,3.9,0,0,0-.64,1l1.28,1.16a6.08,6.08,0,0,1,1-1.47c.58-.8.77-1.41-.25-2.42h0a1.8,1.8,0,0,0,2.7,0c.86-.94.57-2.07-.75-3.27ZM308,193.21l-.72.93,2.16,1.66-3.66,4.74,1.27,1,3.66-4.74,2.16,1.67.71-.92Zm-11.4-7L293,192.43l1.39.8,1.53-2.67,3.38,1.94-1.53,2.67,1.4.8,3.55-6.21-1.39-.8-1.45,2.53-3.38-1.94L298,187Zm-3.66.78c.53-1.59-.72-2.88-2.51-3.54-2.34-.87-4.24-.1-5.07,2.14s0,4,2.38,4.89c2.09.77,3.72.5,4.38-1l-1.56-.58a1.78,1.78,0,0,1-2.31.55,2.61,2.61,0,0,1,1.79-4.88c1,.36,1.58,1.13,1.34,1.87Zm-17-7.08,2.58,5-.52,2.68,1.58.3.51-2.67,4.23-3.7-1.87-.36-2.81,2.58L278,180.32Zm-8.69-.15v1.17l4.38.05-4.75,4.42,0,1.51,6.8.08,0-1.16-4.93-.06,4.75-4.4,0-1.53Zm-2.88,2.46c-.33-1.5-1.67-2.07-3.63-1.73-1.8.32-3,1.32-2.76,2.84.19,1.07,1.12,1.61,2.83,1.54l1.48-.06c.83,0,1.21.15,1.3.65s-.33,1.16-1.6,1.38-1.93-.12-2.19-1l-1.58.28c.27,1.49,1.67,2.17,3.74,1.81,2.35-.42,3.5-1.47,3.24-3-.18-1-1-1.64-2.38-1.59l-2.07.07c-.73,0-1.09-.19-1.17-.68s.53-1.09,1.2-1.21c1.17-.2,1.8.08,2,.94Zm-21.61,4.62,5.09,5.64,1.79-.74-.4-6h0l4,4.51,1.82-.75-.38-7.58-1.49.61.42,5.88h0L249.67,184l-1.86.77.41,5.88h0l-3.88-4.45ZM240.53,196a2.6,2.6,0,1,1,.55-3.57,2.33,2.33,0,0,1-.55,3.57m1.91-4.53c-1.41-2-3.38-2.22-5.58-.67s-2.65,3.49-1.23,5.49,3.37,2.23,5.58.66,2.64-3.48,1.23-5.48m-16.85,8.81,4.75,5.35,1.08-.95-3.71-4.19h0l6.81,1.43,1.62-1.43-4.74-5.36-1.08,1,3.64,4.11h0l-6.67-1.42Zm-3.09,3.3,3.11,2.91c.92.85,1,1.71.26,2.53a1.34,1.34,0,0,1-2,.12l-1.09,1.18c1.21,1.08,2.66.86,4-.58,1.66-1.77,1.15-3.28,0-4.37l-3.18-3Zm-6.06,8.86,3.35.85-1.9,2.29Zm-1.54-.12,3.17,7.38,1.11-1.33-.76-1.61,2.63-3.17,1.77.39,1.21-1.46-7.84-1.76Zm-8.23,10.07,5.56,4.5.91-1.12-4.34-3.52v0l7,.29,1.36-1.67-5.56-4.51-.91,1.13,4.27,3.45v0l-6.82-.31Zm-7.06,9,2.79,2.18-.14.84.79.62.15-.84,2.05,1.6,3.41-4.36-.92-.72-2.42,3.1-1.81-1.41.38-2.12-.8-.62-.37,2.12-2.12-1.66ZM194.52,235l.41,1.75.68-.9-.07-2.2Zm6.24,5.07a2.6,2.6,0,1,1-.56-3.57,2.34,2.34,0,0,1,.56,3.57m.44-4.9c-1.95-1.48-3.89-1.09-5.52,1.06s-1.47,4.12.49,5.6,3.88,1.1,5.52-1.06,1.46-4.12-.49-5.6m-12.7,11,5.75,4.26,1-1.29-3-2.24,5-.37,1.27-1.71-5.27.5-.7-4.45-1.18,1.58.71,4.29-2.51-1.86Zm1.27,8.64a2.6,2.6,0,1,1-.57-3.56,2.33,2.33,0,0,1,.57,3.56m.43-4.89c-2-1.47-3.9-1.08-5.52,1.08s-1.45,4.12.51,5.59,3.89,1.09,5.52-1.07,1.45-4.13-.51-5.6m-16.48,15.16,7.15,2.56,1.23-1.49-3.19-5.11h0l5.68,2.08,1.25-1.53-3.92-6.5-1,1.24,3.14,5v0l-5.55-2.05-1.28,1.56,3.14,5h0l-5.53-2.08Zm-7.28,7.45,5.11,5,2.81-2.86a2,2,0,0,0,0,1.88c.29.29.79.16,1.43-.49a4.57,4.57,0,0,0,.75-1l-.45-.21a2,2,0,0,1-.37.52c-.29.3-.61.43-.77.27s-.18-.7,0-1.55l.74-.75-.83-.82-3,3-1.41-1.38,2.74-2.79-.83-.82-2.74,2.8-1.2-1.18,2.84-2.91-.83-.81Zm-2.73,2.66,5,5.13,1.16-1.11-5-5.13Zm-.14,3.12c-1.09-1.09-2.53-.83-4,.52s-1.82,2.76-.76,3.89c.73.79,1.81.74,3.2-.25l1.21-.86c.68-.48,1.1-.53,1.45-.16s.35,1.15-.59,2-1.69.95-2.38.35l-1.17,1.1c1,1.11,2.58.91,4.11-.53,1.75-1.62,2.13-3.13,1.11-4.23-.71-.76-1.71-.86-2.86-.05l-1.7,1.19c-.6.42-1,.43-1.36.07s-.14-1.2.36-1.67c.87-.81,1.54-.91,2.19-.31Zm-14.31,7.59,0,1.8.85-.74.39-2.17Zm5.33.84c-1.14-1.23-2.88-.76-4.32.48-1.89,1.64-2.13,3.67-.57,5.48s3.54,1.91,5.43.28c1.68-1.45,2.23-3,1.22-4.33l-1.26,1.09a1.77,1.77,0,0,1-.64,2.28,2.61,2.61,0,0,1-3.4-3.93c.79-.68,1.76-.83,2.28-.26Zm-13,8,4.56,5.52,3.09-2.56a2,2,0,0,0-.21,1.87c.26.31.77.24,1.47-.34a4.54,4.54,0,0,0,.85-.9l-.43-.25a1.9,1.9,0,0,1-.41.48c-.33.27-.66.36-.8.18s-.11-.71.14-1.54l.8-.67-.74-.9-3.27,2.7-1.25-1.51,3-2.5-.75-.9-3,2.5-1.07-1.3,3.13-2.59-.75-.9Zm-3.81,7.16-1.28-1.6,1.73-1.38c.89-.7,1.43-.72,1.84-.2s.25,1.17-.64,1.87Zm-3.26-1.52L139,306l1.25-1-1.75-2.22,1.36-1.08c1.25-1,1.67-.85,2.55.14a4.16,4.16,0,0,0,.82.79l1.36-1.07a6.44,6.44,0,0,1-1.29-1.21c-.69-.71-1.26-1-2.42-.15l0,0c1-.88,1.09-1.8.4-2.67s-1.95-.9-3.35.21Zm-6.74,5.09,4.31,5.71,1.28-1-2.27-3,4.86,1,1.7-1.28-5.19-1,.58-4.47-1.57,1.18L131,307l-1.88-2.5Zm-4.24,4.63,3,1.67-2.42,1.73Zm-1.46-.51,1.2,7.94,1.41-1-.33-1.75,3.35-2.4,1.61.83,1.54-1.11-7.14-3.69Zm-8.92,6.18.66,1,3.62-2.47-1.36,6.34.86,1.25,5.62-3.84-.66-1-4.07,2.77,1.37-6.32-.86-1.27Zm-3.84,9.41.76,1.17,1.16-.76-.75-1.16Zm-3.17-4.81,3,4.24.93-.61-2.64-4.45ZM98.84,325l3.78,6.08L106,329a2,2,0,0,0-.46,1.82c.22.35.73.35,1.5-.14a4.19,4.19,0,0,0,1-.77l-.39-.31a1.91,1.91,0,0,1-.48.42c-.36.22-.7.27-.82.07s0-.71.35-1.51l.89-.55-.62-1-3.6,2.24-1-1.67,3.33-2.07-.62-1-3.32,2.07-.89-1.44,3.45-2.14-.62-1Zm-.4,2.9c-.9-1.41-2.69-1.26-4.33-.28-2.15,1.27-2.75,3.23-1.52,5.28s3.15,2.51,5.29,1.24c1.91-1.14,2.73-2.58,2-4.05l-1.44.85c.3.75-.08,1.57-1,2.14a2.61,2.61,0,0,1-2.66-4.47c.9-.53,1.88-.51,2.29.14Zm-14.17,5.61,3.54,6.22,3.49-2a2,2,0,0,0-.53,1.8c.2.36.71.37,1.5-.08a4.46,4.46,0,0,0,1-.73l-.38-.32a2.27,2.27,0,0,1-.49.39c-.37.21-.71.24-.82,0s0-.71.4-1.49l.91-.52-.57-1-3.69,2.1-1-1.71,3.4-1.93-.58-1-3.4,1.94-.83-1.47,3.53-2-.58-1Zm-5,6.38-1-1.81,2-1.05c1-.53,1.53-.46,1.84.12s0,1.2-1,1.74Zm-2.94-2.07,3.4,6.29,1.41-.76-1.34-2.48,1.53-.83c1.4-.76,1.79-.55,2.48.58a4,4,0,0,0,.68.92l1.51-.82A6.55,6.55,0,0,1,85,339.31c-.56-.82-1.07-1.2-2.36-.57v0c1.09-.71,1.38-1.59.86-2.56-.61-1.13-1.77-1.23-3.34-.38ZM68.8,341.7l3.27,6.36,1.43-.73L71.78,344l4.61,1.86,1.89-1L73.34,343l1.33-4.31-1.75.91-1.26,4.15L70.23,341Zm-10.66,5.15,3.06,6.47,3.63-1.72a2,2,0,0,0-.67,1.76c.18.37.68.42,1.51,0a4.56,4.56,0,0,0,1-.66l-.36-.34a2,2,0,0,1-.52.35c-.38.19-.72.19-.82,0s.07-.72.52-1.47l.95-.45-.5-1.05-3.84,1.81-.84-1.77,3.54-1.68-.5-1.05-3.54,1.67-.72-1.52,3.67-1.74-.5-1.06Zm-3.53,1.61,3,6.51,1.46-.66-3-6.51Zm-.92,2.93c-.72-1.52-2.52-1.59-4.26-.83-2.3,1-3.14,2.86-2.18,5.06s2.8,2.88,5.09,1.89c2-.89,3-2.22,2.46-3.77l-1.52.66c.19.78-.29,1.55-1.3,2a2.61,2.61,0,0,1-2.07-4.76c1-.42,1.92-.28,2.25.42Zm-16.57,5.82,2.51,2.37-2.77,1.07Zm-1.29-.86-.81,8,1.6-.62.13-1.77,3.84-1.49,1.35,1.2,1.77-.69-6-5.35Zm-6,2.21,1.41,4c.41,1.18.1,2-1,2.36a1.34,1.34,0,0,1-1.82-.81l-1.51.53c.56,1.52,1.95,2,3.81,1.35,2.29-.8,2.54-2.37,2-3.89L31.39,358Z" transform="translate(-27 -179.77)"/></g></svg>