<svg id="Layer_1" data-name="Layer 1" xmlns="http://www.w3.org/2000/svg" xmlns:xlink="http://www.w3.org/1999/xlink" viewBox="0 0 840.33 470.12"><defs><style>.cls-1{fill:none;}.cls-2{clip-path:url(#clip-path);}.cls-3{fill:#71ea78;}</style><clipPath id="clip-path" transform="translate(-18.54 -11.9)"><rect class="cls-1" x="18.54" y="11.9" width="840.33" height="470.12"/></clipPath></defs><g class="cls-2"><path class="cls-3" d="M858.87,471.93l-5.31,4-3.22-.06,0,1.9,3.22.06,5.16,4.18.05-2.25L855.16,477l3.67-2.61ZM854.73,464l2.42-.11.12,2.61c.05,1.34-.3,1.87-1.08,1.91s-1.3-.58-1.35-1.92Zm3.72-2.06-8.45.36.08,1.9,3.34-.15.09,2.07c.08,1.87-.34,2.18-1.91,2.33a4.44,4.44,0,0,0-1.32.25l.08,2a8.07,8.07,0,0,1,2-.39c1.16-.17,1.83-.51,1.83-2.22h0c.19,1.53,1,2.3,2.28,2.24,1.51-.07,2.22-1.25,2.13-3.35Zm-.5-5.26-8.42.79.18,1.89,8.42-.79Zm-2.49-7.74-3.39,2.27-.5-3.48Zm1.33-1.26-9-3.05.29,2,2,.61.7,4.83-1.74,1.23.33,2.23,7.75-5.5Zm-2.3-11.61-8.26,1.85.42,1.85,3.54-.79.92,4.07,1.34-.31-.91-4.07,2-.45,1,4.31,1.35-.3Zm-4.83-16.52L845.91,425l-3.08,1,.58,1.81,3.07-1,6.23,2.3L852,427l-4.27-1.46,2.65-3.64Zm-4.43-10.82-7.83,3.21.65,1.58,6.11-2.51v0l-4.25,7.06,1,2.36,7.83-3.21-.65-1.58-6,2.46v0l4.19-6.9Zm-5.55-11.22-7.56,3.79.76,1.53,5.91-3v0l-3.71,7.35,1.15,2.29,7.56-3.8-.76-1.52-5.81,2.91v0l3.66-7.19Zm-5-8.53-7.29,4.29,3.5,6,1.19-.7-2.54-4.32,2-1.18,2.35,4,1.19-.7-2.35-4,1.72-1,2.44,4.14,1.19-.7Zm-2.63-4.15-4.22,2.77c-1.23.81-2.25.68-3-.42a1.58,1.58,0,0,1,.41-2.32l-1-1.59c-1.59,1.09-1.74,2.82-.47,4.77,1.58,2.4,3.45,2.24,5,1.19l4.29-2.81Zm-16.78-11.56,4.57-3.39,1.11,1.49c1.09,1.47,1,3-.46,4a2.72,2.72,0,0,1-4.1-.62Zm4.55-5.74-6.79,5,2.42,3.27c2,2.72,4.51,2.41,6.09,1.24,2.21-1.64,2.43-4,.69-6.31Zm-10.39-1.35a3.07,3.07,0,1,1,4.25.39,2.76,2.76,0,0,1-4.25-.39m5.48,1.93c2.26-1.81,2.38-4.14.39-6.63s-4.3-2.88-6.56-1.07-2.39,4.13-.39,6.63,4.3,2.88,6.56,1.07M798,341l-4.54,7.76,1.47,1.75,6.63-2.6,0,0L798,354l1.5,1.79,8.41-3.14-1.22-1.45-6.48,2.56h0l3.59-6-1.53-1.83-6.48,2.56,0,0,3.63-6Zm-2.11-6H793.8l.85,1,2.55.53Zm-7.55,5.77a3.07,3.07,0,1,1,4.26.34,2.76,2.76,0,0,1-4.26-.34m5.5,1.86c2.24-1.83,2.34-4.17.32-6.63s-4.33-2.83-6.57-1-2.35,4.17-.32,6.64,4.33,2.83,6.57,1m-13.83-12.76,4.52-3.48,1.14,1.48a2.64,2.64,0,0,1-.4,4.05,2.71,2.71,0,0,1-4.1-.55Zm4.46-5.82-6.71,5.16,2.48,3.22c2.07,2.69,4.55,2.34,6.11,1.14,2.19-1.68,2.36-4,.58-6.32Zm-6.43-9.33-7,4.75,1,1.41,5.47-3.71v0l-2.71,7.78,1.43,2.11,7-4.75-1-1.42-5.37,3.65v0l2.68-7.61Zm-4.32-7.5-7.35,4.19,3.42,6,1.21-.69-2.49-4.35,2-1.15,2.29,4,1.2-.69-2.29-4,1.73-1,2.38,4.18,1.2-.69Zm-6.89-5.81,2.22-1,1,2.39c.54,1.22.41,1.85-.31,2.16s-1.41-.06-2-1.29Zm2.72-3.27-7.74,3.41.76,1.74,3.06-1.35.83,1.89c.76,1.71.48,2.15-.92,2.86a5.17,5.17,0,0,0-1.15.72l.82,1.86a7.62,7.62,0,0,1,1.77-1.11c1-.58,1.52-1.15.89-2.73h0c.72,1.36,1.74,1.78,2.93,1.25,1.39-.61,1.62-2,.77-3.89Zm-2.82-8.86-1.31.41,1,3.08-6.76,2.11.56,1.81,6.76-2.11,1,3.07,1.32-.41Zm-3-13.51-8.29,1.73.39,1.85,3.56-.74.94,4.52-3.56.74.38,1.85,8.29-1.72-.39-1.86-3.37.7-.94-4.51,3.37-.7Zm-2.95-1.47c1.95-.37,2.56-2.41,2.21-4.63-.46-2.92-2.35-4.44-5.14-4s-4.13,2.37-3.67,5.28c.41,2.6,1.63,4.12,3.58,3.93l-.3-1.94c-.95,0-1.69-.79-1.9-2.07a3.09,3.09,0,0,1,6.07-1c.19,1.21-.26,2.28-1.16,2.44Zm-.25-20.54L756,258.48l-3.2.43.25,1.88,3.2-.43,5.73,3.35-.3-2.23-3.94-2.18,3.23-3.13Zm-1-8.6-1.37.17.63,5.14-5.93-4.86-1.77.22,1,8,1.37-.17-.71-5.78,5.9,4.87,1.8-.22Zm-2.79-2c1.8-.29,2.55-1.85,2.26-4.17-.27-2.16-1.38-3.66-3.19-3.43-1.27.15-2,1.22-2,3.24l0,1.75c0,1-.25,1.43-.85,1.5s-1.35-.46-1.54-2,.26-2.28,1.32-2.53l-.24-1.88c-1.77.22-2.66,1.84-2.35,4.31.34,2.79,1.52,4.21,3.29,4,1.21-.15,2-1,2-2.7l0-2.45c0-.87.29-1.28.87-1.35.75-.1,1.25.69,1.35,1.5.18,1.39-.2,2.11-1.22,2.31Zm-.7-24.81-8,4.15.31,2.26,7,1.34v0L749,229.37l.31,2.31,8.79,1.83-.25-1.89L751,230.35v0l6.24-3.16L757,224.8l-6.85-1.29v0l6.24-3.12ZM747.79,213a3.07,3.07,0,1,1,3.51,2.43,2.75,2.75,0,0,1-3.51-2.43m3.83,4.37c2.85-.47,4.11-2.44,3.59-5.59s-2.33-4.61-5.19-4.15-4.11,2.43-3.59,5.59,2.33,4.62,5.19,4.15m.39-22L743.7,197l.32,1.68,6.49-1.24v0L745,203.5l.48,2.51,8.31-1.59-.32-1.68L747,204v0l5.47-5.94Zm-1-4.7-4.91,1.11c-1.44.33-2.35-.15-2.64-1.43a1.58,1.58,0,0,1,1.19-2l-.42-1.85c-1.86.46-2.61,2-2.1,4.3.64,2.8,2.45,3.3,4.3,2.88l5-1.13ZM746.59,179l-3.12,2.63-.89-3.41Zm1.18-1.4-9.27-2,.51,2,2.07.38,1.22,4.72L740.71,184l.57,2.18,7.1-6.32Zm-4.4-15-8.09,2.49.5,1.64,6.32-1.95v0l-4.88,6.64.75,2.44,8.09-2.48-.5-1.64-6.21,1.91v0l4.8-6.49Zm-4.67-13L734.77,151l-.76-.67-1.12.42.76.67-2.89,1.07,2.28,6.14,1.29-.48-1.61-4.37,2.54-.94,1.9,1.7,1.12-.42-1.9-1.69,3-1.1ZM738,142l-2-.62.51,1.24,2.3,1.23Zm-8.87,3.38a3.07,3.07,0,1,1,4,1.54,2.75,2.75,0,0,1-4-1.54m4.74,3.36c2.67-1.12,3.43-3.34,2.19-6.28s-3.35-3.94-6-2.82-3.43,3.33-2.19,6.28,3.35,3.94,6,2.82M729.69,129l-7.64,3.64.81,1.71,4-1.91-2.37,5.38,1.08,2.27,2.41-5.77,5,1.73L732,134l-4.87-1.64,3.33-1.59Zm-10-3.41a3.07,3.07,0,1,1,4.11,1.16,2.77,2.77,0,0,1-4.11-1.16m5,2.9c2.55-1.37,3.1-3.64,1.59-6.46s-3.7-3.61-6.25-2.24-3.11,3.63-1.6,6.45,3.7,3.61,6.26,2.25M715,103.22l-5.63,7,1.2,2,6.94-1.6,0,0L713,116.14l1.22,2,8.78-1.87-1-1.62-6.78,1.59v0l4.44-5.41-1.25-2-6.79,1.58v0l4.46-5.37Zm-7.85-11.17L700.27,97l2.76,3.86a2.36,2.36,0,0,0-2.19-.41c-.39.28-.35.88.28,1.76a5.38,5.38,0,0,0,1,1.08l.33-.48a2.42,2.42,0,0,1-.53-.53c-.29-.41-.37-.81-.15-1s.84-.07,1.81.29l.72,1,1.13-.81-2.92-4.07,1.88-1.36,2.7,3.77,1.12-.8-2.69-3.77,1.62-1.16,2.8,3.91,1.12-.81Zm-3-4-6.73,5.13,1.15,1.5,6.73-5.12Zm-3.79-.79c1.38-1.18,1.21-2.9-.25-4.74s-3.08-2.4-4.51-1.27c-1,.8-1,2.07,0,3.81l.89,1.5c.51.84.53,1.35.06,1.72s-1.39.32-2.34-.88-1-2.08-.19-2.84l-1.18-1.49c-1.41,1.12-1.32,3,.23,4.91,1.75,2.2,3.5,2.8,4.89,1.69,1-.75,1.17-1.92.32-3.36l-1.24-2.11c-.44-.75-.42-1.24,0-1.61s1.43-.06,1.94.57c.87,1.11.93,1.91.16,2.62Zm-8.88-17.89-2.13.08.89,1,2.58.41Zm-.88,6.32c1.43-1.37.84-3.42-.67-5.09-2-2.2-4.38-2.45-6.48-.56s-2.19,4.23-.22,6.43c1.76,1.95,3.62,2.57,5.15,1.35l-1.31-1.47c-.8.52-1.85.26-2.72-.71a3.08,3.08,0,0,1,4.57-4.1c.82.91,1,2,.36,2.68ZM680.14,60.57l-6.08,5.89,3.3,3.41a2.37,2.37,0,0,0-2.23-.08c-.34.34-.21.93.54,1.7a4.92,4.92,0,0,0,1.14.92l.25-.52a2.2,2.2,0,0,1-.59-.45c-.35-.36-.49-.74-.3-.93s.83-.19,1.84,0l.86.9,1-1-3.49-3.6L678,65.25l3.22,3.32,1-1L679,64.28l1.43-1.38,3.34,3.45,1-1Zm-9.28-3.73,1.68-1.75,1.89,1.81c1,.92,1.08,1.55.53,2.12s-1.33.47-2.29-.45Zm1.27-4.06-5.86,6.1,1.37,1.32L670,57.78l1.48,1.43c1.36,1.3,1.27,1.82.24,3a4.91,4.91,0,0,0-.79,1.09l1.47,1.41a7.84,7.84,0,0,1,1.21-1.7c.72-.92,1-1.63-.21-2.86l0,0c1.19,1,2.29,1,3.19,0s.75-2.43-.78-3.89Zm-7.85-7-5.6,6.34,1.42,1.26L663.05,50,663,55.88l1.88,1.66-.05-6.25,5.32-.38-1.75-1.55-5.12.4L665.7,47Zm-7-3.81-.94,4-2.74-2.21Zm.12-1.83L648.72,44l1.59,1.28,1.89-.92L656,47.4l-.43,2.09,1.75,1.41,1.94-9.3Zm-10.92-8-.8,1.13,4.23,3-7.59,1.11-1,1.46,6.57,4.65.8-1.12-4.75-3.37,7.57-1.09,1-1.48Zm-12.64.22L633,33.71l1.42.83.83-1.41Zm3.4-5.92-2.9,5.39,1.13.67,3.3-5.16Zm-9.7-5.09-3.81,7.55L628,31a2.35,2.35,0,0,0-2.13.66c-.21.42.1.94,1.07,1.42a5.29,5.29,0,0,0,1.37.5l.07-.58a2.19,2.19,0,0,1-.71-.23c-.45-.22-.7-.53-.58-.77s.72-.46,1.74-.59l1.11.56.62-1.23L626,28.46l1.05-2.07,4.13,2.08.63-1.23-4.14-2.09.9-1.78,4.29,2.17.62-1.23Zm-3.86,1.14c.64-1.87-.82-3.42-2.93-4.22-2.76-1-5-.16-6,2.48s0,4.76,2.76,5.81c2.46.94,4.39.63,5.19-1.16l-1.84-.7c-.47.83-1.52,1.08-2.74.62a2.77,2.77,0,0,1-1.53-3.87,2.76,2.76,0,0,1,3.71-1.88c1.15.44,1.86,1.36,1.55,2.22Zm-16.86-8.37-2.24,8.16,4.58,1.26c-1,.1-1.83.6-2,1.07s.29.9,1.33,1.18A5.15,5.15,0,0,0,610,26l-.05-.58a2.25,2.25,0,0,1-.74-.09c-.49-.13-.79-.38-.72-.64s.61-.59,1.58-.92l1.2.33.37-1.33-4.84-1.33.61-2.24,4.47,1.23.36-1.34-4.46-1.22.52-1.92,4.64,1.27.36-1.34Zm-10.42,2.13.35-2.41,2.58.38c1.33.19,1.78.64,1.67,1.42s-.81,1.16-2.13,1Zm-1.33-4.05-1.22,8.38,1.88.27.48-3.31,2,.3c1.85.27,2.08.74,1.94,2.31a4.94,4.94,0,0,0,0,1.35l2,.29a8,8,0,0,1,0-2.08c.06-1.17-.16-1.9-1.83-2.21v0c1.54.1,2.44-.54,2.62-1.83.22-1.49-.8-2.41-2.89-2.71ZM583.58,12l0,8.46h1.9l0-4.46,3.87,4.43h2.51l-4.2-4.63,3.71-3.83h-2.33l-3.56,3.71,0-3.69Zm-15.73,2.24,1.67,8.29,4.65-.93c-.82.52-1.36,1.36-1.27,1.83s.66.68,1.72.47a5.23,5.23,0,0,0,1.39-.46l-.3-.5a2.38,2.38,0,0,1-.7.26c-.5.1-.89,0-.94-.25s.28-.8,1-1.53l1.22-.25L576,19.77l-4.92,1-.45-2.27,4.54-.91-.28-1.36-4.53.91-.4-2,4.71-.95-.27-1.35Zm-5.21,1.45L565,23.77l1.83-.52-2.34-8.13Zm-2.23,3.43c-.78-1.82-2.91-2-5-1.15-2.75,1.09-3.82,3.26-2.78,5.89s3.2,3.52,6,2.44c2.44-1,3.67-2.5,3.06-4.36l-1.84.72c.21.93-.4,1.83-1.61,2.3a2.75,2.75,0,0,1-3.73-1.82,2.76,2.76,0,0,1,1.48-3.89c1.14-.45,2.28-.25,2.64.59ZM540.06,27.4l3.38,2.29-3,1.78Zm-1.66-.76.55,9.48,1.76-1L540.52,33l4.21-2.46,1.8,1.14,1.94-1.13-8-5.12Zm-7.15,4.67,2.92,4.11c.86,1.2.77,2.23-.3,3a1.59,1.59,0,0,1-2.34-.33L530,39.18c1.14,1.55,2.87,1.64,4.77.29,2.34-1.67,2.11-3.53,1-5.08l-3-4.18ZM523.8,45.66l1.05,1.26,1.26-1.05-1.05-1.26Zm-12.09,1.63,6.57,1.1,2.17,2.38,1.4-1.28-2.17-2.38-.51-6.62L517.51,42l.45,4.48-4.41-.88Zm-3,8.25L507,53.82,508.86,52c.95-.94,1.58-1,2.14-.48s.44,1.35-.52,2.29Zm-4-1.37,5.95,6L512,58.85l-2.35-2.37L511.1,55c1.33-1.32,1.84-1.22,3-.16a4.81,4.81,0,0,0,1.07.82l1.45-1.43A7.63,7.63,0,0,1,515,53c-.9-.74-1.61-1-2.86.14l0,0c1-1.16,1-2.26.13-3.19-1.07-1.08-2.42-.81-3.92.67Zm-3.54,3.76,6.16,5.79,1.3-1.38-6.16-5.8ZM497,64.69l3.91,1.15-2.34,2.62Zm-1.82-.21,3.43,8.86L500,71.82l-.82-1.93,3.25-3.64,2.06.54,1.5-1.67-9.19-2.42Zm-7.45,8.78,6.51,5.4,1.22-1.46-2.8-2.32,2.66-3.21-1.06-.88L491.59,74,490,72.68l2.82-3.4-1.07-.88ZM477.36,86.42l6.66,0,2.55,2,1.16-1.5-2.55-2-1.64-6.43-1.38,1.78,1.22,4.33-4.5-.1Zm-6.62,9.08,6.83,5,1-1.38-5.34-3.9v0l8.24-.07,1.5-2.06-6.83-5-1,1.38,5.25,3.83,0,0-8.07,0Zm-6.91,9.88,6.94,4.84,1-1.4L466.33,105v0l8.23-.24,1.46-2.09-6.94-4.85-1,1.4,5.32,3.72v0l-8.07.22Zm-5.27,7.82,7,4.74,3.87-5.73-1.14-.77-2.81,4.15-1.93-1.3,2.6-3.83-1.15-.78-2.59,3.84-1.65-1.12,2.69-4-1.15-.77ZM456,117l4.19,2.81c1.23.82,1.51,1.81.77,2.9a1.57,1.57,0,0,1-2.29.52l-1.06,1.58c1.62,1,3.27.51,4.57-1.42,1.6-2.39.72-4-.86-5.1l-4.26-2.86Zm-4.54,19.61-4.75-3.15,1-1.55c1-1.53,2.47-1.93,4-.94a2.71,2.71,0,0,1,.82,4.06Zm-6.95-2.33,7.06,4.67,2.24-3.39c1.87-2.83.74-5.06-.9-6.15-2.3-1.52-4.56-.93-6.17,1.5Zm2.1,10.08a3.07,3.07,0,1,1-.93-4.17,2.76,2.76,0,0,1,.93,4.17m.16-5.81c-2.42-1.6-4.68-1-6.44,1.66s-1.42,5,1,6.57,4.67,1,6.43-1.66,1.42-5-1-6.57m-21,23.89,8.71,2.2,1.27-1.9-4.33-5.65v0l6.92,1.81,1.3-1.94-5.36-7.2-1.06,1.57,4.27,5.51v0L430.79,155l-1.34,2,4.27,5.52,0,0L427,160.7ZM420.64,166l.57,2.06L422,167l-.19-2.6Zm7.61,5.69a3.07,3.07,0,1,1-.83-4.19,2.75,2.75,0,0,1,.83,4.19m.3-5.81c-2.38-1.65-4.66-1.1-6.48,1.52s-1.53,4.94.85,6.59,4.64,1.11,6.47-1.51,1.53-4.95-.84-6.6m-8.44,16.85-4.62-3.34,1.1-1.51a2.63,2.63,0,0,1,4-.77,2.73,2.73,0,0,1,.64,4.1Zm-6.85-2.61,6.86,5,2.38-3.29c2-2.75.95-5-.65-6.18-2.23-1.62-4.51-1.13-6.22,1.24Zm-7.06,9.15,6.68,5.18,1.05-1.35-5.22-4.05v0l8.23.17,1.57-2L411.83,182l-1,1.35,5.13,4,0,0-8.07-.19Zm-5.77,7,6.51,5.4,4.41-5.33-1.06-.88-3.2,3.86-1.79-1.48,2.95-3.56-1.06-.88-2.95,3.56-1.54-1.27,3.07-3.7-1.07-.88Zm-2.91,8.95-1.8-1.63,1.76-1.94c.9-1,1.52-1.12,2.11-.59s.51,1.32-.39,2.31Zm-4.1-1.16,6.26,5.69,1.28-1.4-2.47-2.25,1.39-1.52c1.26-1.39,1.77-1.32,3-.32A5,5,0,0,0,404,205l1.37-1.51a7.49,7.49,0,0,1-1.73-1.16c-.94-.7-1.66-.93-2.86.28h0c.95-1.22.92-2.32,0-3.19-1.12-1-2.45-.68-3.87.88Zm-6.91,7.11,1,1,2.26-2.3,5.05,5,1.33-1.35-5.05-5,2.26-2.3-1-1Zm-10.37,9.75,5.74,6.22,1.39-1.29-2.46-2.67,3.38-3.12,2.47,2.67,1.39-1.29-5.74-6.22-1.39,1.29,2.33,2.53-3.38,3.13-2.34-2.53Zm.21,3.35c-1.33-1.47-3.39-.92-5.1.55-2.24,1.92-2.54,4.32-.7,6.46s4.17,2.29,6.42.37c2-1.71,2.65-3.56,1.46-5.12l-1.49,1.28a2.11,2.11,0,0,1-.77,2.7,3.08,3.08,0,0,1-4-4.66c.93-.8,2.08-1,2.69-.3ZM359,235.08l6.49,1.52,2,2.52,1.48-1.19-2-2.51-.09-6.64-1.76,1.4.17,4.51-4.35-1.16Zm-6.81,5.17.84,1.1,4.12-3.15-1.22,7.58L357,247.2l6.4-4.88-.83-1.1-4.64,3.53,1.23-7.55-1.1-1.44Zm-.2,3.27c-1.12-1.43-2.85-1.33-4.75,0s-2.53,3-1.45,4.45c.75,1,2,1.13,3.8.16l1.54-.83c.86-.47,1.37-.47,1.72,0s.25,1.41-1,2.31-2.12.87-2.85.07l-1.53,1.12c1.06,1.45,2.9,1.44,4.91,0,2.28-1.65,2.95-3.37,1.9-4.81-.72-1-1.88-1.25-3.35-.47l-2.16,1.16c-.76.41-1.26.36-1.6-.11-.45-.62,0-1.44.65-1.91,1.14-.83,1.95-.85,2.62-.05Zm-21.42,12.09,7.33,5.21,1.87-1.31-2-6.84h0l5.8,4.18,1.91-1.33-2.38-8.66-1.56,1.09,2,6.67,0,0-5.66-4.11-2,1.37,2,6.68h0l-5.62-4.13ZM329.38,265a3.07,3.07,0,1,1,.79-4.19,2.75,2.75,0,0,1-.79,4.19m2.44-5.27c-1.59-2.42-3.9-2.77-6.57-1s-3.27,4-1.68,6.43,3.89,2.78,6.57,1,3.27-4,1.68-6.43m-20.17,7.83,4.43,7.21,1.46-.9-3.47-5.63h0l7.65,3.06,2.18-1.34-4.44-7.21-1.45.9,3.4,5.53h0l-7.49-3Zm-3.74,2.26,2.55,4.34c.75,1.27.57,2.29-.56,3a1.58,1.58,0,0,1-2.29-.53l-1.64,1c1,1.64,2.73,1.88,4.74.7,2.47-1.46,2.4-3.33,1.44-5l-2.61-4.42Zm-9.64,7.31,3.33,2.35-3.06,1.72Zm-1.66-.79.39,9.49,1.78-1-.16-2.09,4.25-2.39,1.78,1.18,2-1.11-7.92-5.25Zm-13.27,7.21,4,7.46,1.51-.81-3.13-5.83h0l7.46,3.5,2.25-1.21-4-7.45-1.5.81,3.07,5.72h0l-7.3-3.45Zm-11.67,5.79,1.83,3.76-.59.82.52,1.08.59-.82,1.35,2.77,5.89-2.87-.6-1.24-4.19,2-1.18-2.43,1.5-2.06-.53-1.08-1.5,2.06-1.39-2.85Zm-7,.89-.55,2.06,1.21-.56,1.16-2.34Zm3.68,8.75a3.07,3.07,0,1,1,1.41-4,2.75,2.75,0,0,1-1.41,4m3.19-4.85c-1.21-2.63-3.45-3.31-6.34-2s-3.83,3.48-2.61,6.11,3.44,3.31,6.34,2,3.83-3.49,2.61-6.11m-19.25,4,3.4,7.75,1.73-.76-1.79-4.08,5.31,2.54,2.3-1L257.53,300l1.88-5-2.13.94-1.79,4.81L254,297.42Zm-3.82,9.44a3.07,3.07,0,1,1,1.6-4,2.76,2.76,0,0,1-1.6,4m3.42-4.69c-1.08-2.69-3.28-3.48-6.24-2.29s-4,3.29-2.91,6S246,310.1,249,308.9s4-3.29,2.91-6m-26,5.44,5.77,6.89,2.14-.79-.2-7.12h0l4.55,5.52,2.19-.81-.12-9-1.78.66.23,7h0l-4.43-5.41-2.25.83.23,7h0l-4.39-5.42Zm-12.05,3.83,2.54,8.07,4.53-1.42c-.76.61-1.21,1.5-1.07,2s.73.6,1.76.28a5.41,5.41,0,0,0,1.33-.6l-.35-.47a2.35,2.35,0,0,1-.67.34c-.48.15-.88.1-1-.16s.2-.82.84-1.63l1.19-.37-.42-1.32-4.78,1.51-.7-2.22,4.42-1.39-.42-1.31-4.42,1.38L216,313l4.58-1.44-.41-1.32Zm-4.43,1.35,2.46,8.09,1.82-.55L211.2,313Zm-1.84,3.17c-.56-1.73-2.22-2.24-4.47-1.6-2.09.59-3.41,1.91-2.91,3.67.35,1.23,1.5,1.75,3.51,1.47l1.73-.25c1-.14,1.45,0,1.61.61s-.25,1.41-1.72,1.82-2.29.09-2.69-.92l-1.83.52c.49,1.72,2.23,2.35,4.62,1.68,2.7-.77,3.93-2.15,3.45-3.86-.33-1.18-1.33-1.82-3-1.6l-2.43.34c-.86.12-1.31-.1-1.47-.66-.2-.73.5-1.35,1.28-1.57,1.35-.38,2.12-.12,2.47.86Zm-19.08.11-1,1.91,1.3-.3,1.61-2.06Zm5.11,3.83c-.5-1.92-2.59-2.39-4.78-1.88-2.88.67-4.25,2.66-3.62,5.41s2.65,4,5.53,3.29c2.55-.59,4-1.92,3.66-3.85l-1.91.44c.06.95-.67,1.74-1.94,2a3.09,3.09,0,0,1-1.38-6c1.2-.28,2.29.1,2.52,1Zm-18,1.24,1.75,8.27,4.65-1c-.81.53-1.35,1.38-1.25,1.85s.67.67,1.72.45a5.2,5.2,0,0,0,1.39-.47l-.31-.5a2.41,2.41,0,0,1-.7.27c-.49.1-.88,0-.94-.25s.27-.8,1-1.54l1.22-.26-.29-1.35-4.91,1-.48-2.27,4.53-1-.28-1.35-4.53,1-.41-1.95,4.7-1-.29-1.35Zm-7.9,5.31-.44-2.38,2.58-.47c1.31-.24,1.89,0,2,.81s-.4,1.36-1.71,1.6Zm-2.55-3.4,1.52,8.32,1.86-.34-.6-3.29,2-.37c1.85-.33,2.21,0,2.58,1.57A4.86,4.86,0,0,0,173,331l2-.36a7.71,7.71,0,0,1-.67-2c-.33-1.12-.76-1.74-2.45-1.5v0c1.49-.39,2.14-1.28,1.9-2.56-.27-1.49-1.53-2-3.61-1.65Zm-9.85,1.5,1.29,8.36,1.87-.28-.67-4.41,4.47,3.82,2.48-.38-4.83-4,3.11-4.33-2.31.35-3,4.19-.56-3.65Zm-6.93,2.36,2.17,3.46-3.49.4Zm-1.22-1.36-3.31,8.9,2-.24.66-2,4.85-.56,1.18,1.77,2.24-.26-5.28-7.9Zm-12.73,1.24.12,1.38,5.16-.46-5.06,5.76.16,1.79,8-.72-.12-1.38-5.8.52,5.06-5.74-.16-1.81ZM125,335l.09,1.64,1.64-.09-.09-1.64Zm-.44-6.8.57,6.09,1.31-.07-.1-6.12Zm-10.2.35.25,8.46,4.74-.14c-.89.38-1.57,1.11-1.56,1.59s.54.78,1.62.75a4.84,4.84,0,0,0,1.44-.22l-.21-.54a2.36,2.36,0,0,1-.74.14c-.5,0-.87-.14-.88-.41s.42-.74,1.26-1.34l1.24,0,0-1.38-5,.14-.06-2.32,4.62-.13,0-1.39-4.62.14-.06-2,4.8-.13,0-1.39Zm-2,2.73c0-2-2-2.91-4.22-2.92-3,0-4.75,1.61-4.76,4.43s1.66,4.46,4.62,4.48c2.62,0,4.33-1,4.45-2.91h-2c-.15.94-1,1.54-2.35,1.53a3.08,3.08,0,0,1,0-6.14c1.23,0,2.21.62,2.23,1.54Zm-17.73-3-.25,8.45,4.75.14c-.91.33-1.64,1-1.65,1.5s.49.81,1.57.84a5.08,5.08,0,0,0,1.46-.13l-.19-.56a2.1,2.1,0,0,1-.74.1c-.5,0-.86-.19-.85-.46s.45-.71,1.32-1.26l1.24,0,0-1.38-5-.14.07-2.32,4.62.13,0-1.38-4.62-.13,0-2,4.81.14,0-1.38Zm-8.92,3.29.15-2.42,2.61.15c1.33.08,1.82.49,1.78,1.27s-.71,1.23-2,1.15ZM84,327.65l-.51,8.45,1.89.11.2-3.33,2.06.12c1.87.12,2.14.57,2.13,2.14a4.69,4.69,0,0,0,.1,1.34l2,.13a7.68,7.68,0,0,1-.18-2.08c0-1.17-.32-1.87-2-2v0c1.54,0,2.38-.74,2.46-2,.09-1.51-1-2.33-3.12-2.46Zm-9.84-.94-.83,8.42,1.89.19.44-4.43,3.39,4.81,2.49.24-3.69-5L82,327.48l-2.32-.23-3.92,3.32.36-3.67ZM60.4,324.89l-1.2,8.37,4.7.67c-.94.22-1.74.83-1.81,1.31s.4.86,1.47,1a5.2,5.2,0,0,0,1.46,0l-.12-.57a2.1,2.1,0,0,1-.75,0c-.49-.07-.83-.28-.79-.55s.53-.66,1.46-1.11l1.23.18.19-1.37-5-.71.32-2.29,4.59.65.19-1.37-4.58-.65.28-2,4.76.68.19-1.37ZM56,324.12l-1.42,8.34,1.87.32,1.42-8.34Zm-2.79,2.25c.32-2-1.38-3.24-3.59-3.68-2.9-.57-5,.68-5.52,3.45s.79,4.7,3.68,5.27c2.58.51,4.44-.11,4.93-2L50.76,329c-.33.89-1.32,1.31-2.6,1.06a3.09,3.09,0,0,1,1.19-6c1.21.24,2.06,1,1.9,1.93Zm-19.77-5.72.73,4-3.39-.91Zm-.63-1.72-6.37,7,2,.53,1.35-1.6,4.71,1.27.44,2.09,2.18.59-2-9.3Zm-7-2.11-1.61,4.78c-.48,1.4-1.36,1.93-2.6,1.51A1.58,1.58,0,0,1,20.51,321l-1.8-.61c-.58,1.84.37,3.29,2.58,4,2.72.91,4.09-.37,4.69-2.16l1.64-4.87Z" transform="translate(-18.54 -11.9)"/></g></svg>