<svg id="Layer_1" data-name="Layer 1" xmlns="http://www.w3.org/2000/svg" xmlns:xlink="http://www.w3.org/1999/xlink" viewBox="0 0 965.76 312.14"><defs><style>.cls-1{fill:none;}.cls-2{clip-path:url(#clip-path);}.cls-3{fill:#71ea78;}</style><clipPath id="clip-path" transform="translate(-22.12 -93.03)"><rect class="cls-1" x="22.12" y="93.03" width="965.76" height="312.14"/></clipPath></defs><g class="cls-2"><path class="cls-3" d="M510.82,121.5l.84,1.42,1.41-.84-.84-1.41Zm-18.21,3.29,6.27,2.24,1.72,2.72,1.61-1L500.49,126l.65-6.6-1.9,1.2-.34,4.49-4.19-1.63Zm-4.39,7.32-1.3-2.05,2.21-1.4c1.12-.72,1.76-.68,2.18,0s.15,1.41-1,2.13Zm-3.64-2.2,4.54,7.14,1.6-1-1.79-2.82,1.74-1.1c1.58-1,2.06-.8,3,.48a5,5,0,0,0,.88,1l1.72-1.1a7.58,7.58,0,0,1-1.37-1.57c-.72-.92-1.36-1.33-2.83-.48v0c1.23-.92,1.5-2,.8-3.09-.81-1.28-2.19-1.3-4-.17Zm-4.06,2.55,4.49,7.17,1.61-1-4.49-7.17Zm-5.59,5.21,3.41,2.23-3,1.83Zm-1.68-.73.71,9.47,1.74-1.06-.22-2.09,4.16-2.53,1.82,1.12,1.92-1.17-8.09-5Zm-9.48,5.54,4.21,7.34,1.65-.95-1.81-3.15,3.62-2.07-.69-1.2-3.62,2.07-1-1.79,3.83-2.19-.69-1.2Zm-14.17,7.39,6,2.85,1.44,2.89,1.7-.85-1.44-2.88,1.31-6.51-2,1-.79,4.44-4-2.05Zm-9.66,4.25,3.38,7.76,1.57-.68-2.64-6.06h0l7.14,4.1,2.34-1-3.37-7.76-1.57.69,2.59,6h0l-7-4Zm-10.55,3.72,2.74,8,1.61-.55L431.6,159h0l6.79,4.67,2.42-.83-2.74-8-1.62.55,2.1,6.14h0L431.91,157ZM421,160.08l2.12,8.19,6.69-1.74-.35-1.33-4.85,1.25-.58-2.24,4.48-1.16-.35-1.34-4.48,1.16-.5-1.93,4.65-1.21-.35-1.33Zm-3.89.77.95,5c.28,1.45-.23,2.35-1.52,2.6a1.58,1.58,0,0,1-2-1.27l-1.87.36c.4,1.88,1.94,2.68,4.23,2.24,2.82-.54,3.38-2.33,3-4.19l-1-5Zm-17.14,9-.27-5.69,1.86-.09a2.64,2.64,0,0,1,3.1,2.63,2.72,2.72,0,0,1-2.8,3.06Zm-2.23-7,.4,8.45,4.06-.19c3.39-.16,4.52-2.4,4.43-4.37-.13-2.75-1.94-4.22-4.85-4.08ZM391,169.77a3.07,3.07,0,1,1,3.18-2.84,2.75,2.75,0,0,1-3.18,2.84m5.14-2.69c.22-2.89-1.4-4.57-4.58-4.81s-5,1.19-5.26,4.07,1.4,4.57,4.59,4.81,5-1.18,5.25-4.07M368.93,155.8l-.62,9,2.09.92,4.79-5.27h0l-.55,7.13,2.14.94,6.14-6.55-1.74-.76-4.66,5.17h0l.56-7-2.19-1-4.67,5.17h0l.6-6.95Zm-1.06-4.58-2.09.37,1,.86,2.61.07Zm-6.4,7a3.08,3.08,0,1,1,4.25-.42,2.77,2.77,0,0,1-4.25.42m5.75.85c1.88-2.2,1.56-4.52-.87-6.58s-4.77-2-6.64.19-1.57,4.52.87,6.59,4.77,2,6.64-.2M352,148.47l4.19-3.86,1.26,1.37c1.24,1.35,1.28,2.86,0,4.07a2.72,2.72,0,0,1-4.14-.19Zm3.92-6.19L349.72,148l2.75,3c2.3,2.49,4.74,1.92,6.19.59,2-1.87,2-4.2,0-6.35Zm-8.05-8.76-6.18,5.78,1.17,1.25,4.83-4.52v0l-1.47,8.1L348,146l6.18-5.79L353,139l-4.75,4.43h0l1.46-7.94Zm-7.37-6.79L334.85,133l5.13,4.63.92-1-3.72-3.36,1.56-1.73,3.43,3.11.93-1-3.44-3.1L341,129l3.57,3.22.92-1Zm-10.24-2.82,1.4-2,2.14,1.5c1.09.77,1.3,1.38.85,2s-1.25.67-2.34-.1Zm.65-4.2-4.88,6.91,1.55,1.09,1.93-2.73,1.68,1.19c1.54,1.08,1.53,1.61.69,2.94a4.66,4.66,0,0,0-.62,1.2l1.67,1.17a7.74,7.74,0,0,1,.94-1.86c.57-1,.71-1.76-.64-2.8l0,0c1.32.79,2.41.63,3.16-.44.87-1.23.37-2.51-1.35-3.73ZM321,114.28l-.65,1.22,2.85,1.51-3.32,6.26,1.68.88,3.31-6.25,2.85,1.51.65-1.22Zm-14.9-5.69-2.78,8,1.8.62,1.19-3.43,4.35,1.51-1.19,3.43,1.79.63,2.78-8-1.79-.62L311.11,114l-4.36-1.52,1.14-3.25Zm-3.66,1.74c.41-1.94-1.24-3.29-3.43-3.82-2.87-.69-5,.47-5.66,3.21s.6,4.73,3.47,5.42c2.55.62,4.43.07,5-1.8l-1.91-.46a2.11,2.11,0,0,1-2.64,1,3.08,3.08,0,0,1,1.44-6c1.2.29,2,1.11,1.82,2Zm-20.26-6.66,3.3,5.78-.47,3.19,1.88.28.47-3.19,4.8-4.58-2.22-.33L286.74,108l-2.11-4Zm-9.58-.45-.07,1.38,5.18.24-5.8,5-.09,1.79,8,.38.07-1.38-5.82-.27,5.8-5,.09-1.81Zm-3.21,2.58c-.24-1.8-1.77-2.6-4.1-2.39-2.16.19-3.7,1.24-3.54,3.06.11,1.28,1.15,2,3.17,2.1l1.75.08c1,0,1.42.29,1.47.89s-.5,1.34-2,1.47-2.27-.33-2.48-1.4l-1.89.17c.16,1.79,1.75,2.73,4.22,2.51,2.81-.25,4.27-1.38,4.11-3.16-.11-1.21-1-2-2.63-2.12l-2.45-.12c-.86,0-1.27-.34-1.32-.92-.07-.76.74-1.23,1.54-1.3,1.41-.13,2.11.27,2.28,1.3Zm-25.79,2.34,5.13,7.38,2.2-.6.43-7.11h0l4,5.9,2.25-.61.69-8.95-1.83.49-.39,7h0l-3.94-5.78-2.3.63-.4,7h0l-3.88-5.8Zm-4,10.26a3.07,3.07,0,1,1,1.25-4.08,2.76,2.76,0,0,1-1.25,4.08m3-5c-1.32-2.57-3.58-3.17-6.42-1.72s-3.69,3.63-2.37,6.21,3.57,3.18,6.42,1.72,3.69-3.63,2.37-6.21m-21.22,8.34,5.05,6.79,1.37-1-3.94-5.3,0,0,7.88,2.38,2.05-1.53-5.05-6.79-1.37,1,3.88,5.21,0,0-7.72-2.35Zm-4.19,4,3.58,3.56c1,1,1.13,2.07.2,3a1.58,1.58,0,0,1-2.35.07l-1.34,1.35c1.38,1.33,3.11,1.12,4.75-.53,2-2,1.49-3.83.14-5.17l-3.64-3.62Zm-7.57,10.63,4,.94-2.2,2.74Zm-1.83-.11,3.9,8.66,1.28-1.59-.93-1.89,3.06-3.8,2.09.43,1.41-1.75-9.31-1.93Zm-9.15,13.33,7.13,4.56.92-1.44-5.57-3.56v0l8.22-.58,1.37-2.15-7.13-4.56-.92,1.44,5.47,3.5v0l-8,.54Zm-6.71,12.54,3.74,1.88,0,1,1.07.53,0-1,2.75,1.39,3-5.84-1.23-.63-2.1,4.16-2.42-1.22-.05-2.55-1.07-.54.05,2.55-2.83-1.44Zm-5.07,5.74.94,1.91.55-1.22-.67-2.52Zm8.53,4.18a3.07,3.07,0,1,1-1.59-4,2.75,2.75,0,0,1,1.59,4m-.79-5.76c-2.64-1.18-4.77-.22-6.08,2.69s-.59,5.14,2.06,6.32,4.77.23,6.07-2.69.6-5.14-2.05-6.32m-11.55,16.11,7.76,3.37.75-1.74-4.08-1.77,5.61-1.75,1-2.31-5.93,2-2-4.94-.93,2.14,2,4.75-3.39-1.47Zm3.34,9.32a3.07,3.07,0,1,1-1.29-4.08,2.76,2.76,0,0,1,1.29,4.08M186,186c-2.55-1.37-4.75-.58-6.27,2.22s-1,5.08,1.57,6.46,4.74.6,6.27-2.22,1-5.08-1.57-6.46m-16.9,20.21,8.77,2,1.22-1.93-4.49-5.53v0l7,1.61,1.24-2-5.54-7.06-1,1.61,4.42,5.38,0,0-6.8-1.6-1.28,2,4.41,5.4,0,0-6.78-1.64Zm-7.39,10.05,6.82,5,2.81-3.83a2.39,2.39,0,0,0,.29,2.21c.39.29,1,.06,1.59-.81a5.94,5.94,0,0,0,.72-1.27l-.56-.17a2.51,2.51,0,0,1-.35.67c-.3.4-.64.6-.86.44s-.33-.78-.29-1.81l.74-1-1.11-.82-3,4-1.88-1.38,2.75-3.73-1.12-.81-2.74,3.73-1.6-1.19,2.84-3.87-1.11-.82ZM159,219.8,165.7,225l1.16-1.51-6.71-5.15Zm.37,3.67c-1.46-1.08-3.1-.53-4.56,1.3s-1.66,3.54-.23,4.68c1,.8,2.24.55,3.7-.84l1.27-1.21c.71-.68,1.2-.82,1.66-.44s.62,1.29-.33,2.48-1.81,1.4-2.73.82L157,231.74c1.4,1.12,3.18.62,4.73-1.32,1.76-2.2,2-4,.57-5.15-.95-.76-2.14-.7-3.35.44l-1.79,1.68c-.62.6-1.11.68-1.57.32s-.38-1.39.13-2c.88-1.1,1.65-1.33,2.51-.73Zm-15.47,11.36.36,2.1.87-1,.07-2.61Zm6.38.06c-1.54-1.25-3.5-.39-5,1.31-1.93,2.25-1.86,4.67.29,6.51s4.47,1.62,6.4-.63c1.71-2,2.08-3.91.67-5.27l-1.29,1.49c.62.73.5,1.8-.35,2.79a3.08,3.08,0,0,1-4.66-4c.8-.94,1.91-1.29,2.62-.71Zm-13.75,11.63,6.31,5.64,3.16-3.54a2.36,2.36,0,0,0,.09,2.23c.35.32.93.14,1.65-.66a5.66,5.66,0,0,0,.84-1.2l-.55-.22a2.18,2.18,0,0,1-.4.63c-.34.38-.7.54-.9.36s-.26-.81-.11-1.83l.82-.93-1-.92-3.34,3.74-1.73-1.54,3.08-3.46-1-.92-3.08,3.46L138.81,246l3.2-3.59-1-.92Zm-3.18,9.08L131.56,254l1.78-1.92c.9-1,1.53-1.1,2.11-.57s.5,1.32-.41,2.31Zm-4.08-1.19,6.21,5.74,1.29-1.39-2.46-2.27,1.41-1.51c1.27-1.38,1.79-1.3,3-.3a5.05,5.05,0,0,0,1.11.77L141.2,254a7.61,7.61,0,0,1-1.72-1.18c-.93-.7-1.66-.94-2.86.26h0c1-1.21.94-2.31,0-3.2-1.11-1-2.44-.7-3.88.85Zm-6.94,7.28,6.12,5.84,1.31-1.37-3.22-3.07,5.87.29,1.73-1.81-6.24-.2-.18-5.32-1.61,1.68.2,5.14-2.67-2.55Zm-4.07,6.3,3.86,1.33-2.47,2.51Zm-1.81-.3,3,9,1.43-1.46-.73-2,3.42-3.48,2,.64,1.58-1.61L118.12,266Zm-9.14,9.12,1,1,3.68-3.65-.22,7.67,1.26,1.27,5.71-5.67-1-1-4.13,4.1.23-7.65-1.27-1.29Zm-2.42,11.82,1.13,1.18,1.19-1.13-1.14-1.18Zm-4.78-4.86,4.41,4.24.94-.91-4.07-4.57Zm-7.5,7.1L98.4,297l3.45-3.25a2.36,2.36,0,0,0-.1,2.22c.33.35.92.23,1.7-.51a5.61,5.61,0,0,0,.94-1.12l-.52-.27a2.46,2.46,0,0,1-.46.59c-.36.35-.74.48-.93.28s-.18-.82,0-1.83l.9-.85-.94-1-3.66,3.44L97.24,293l3.37-3.17-1-1L96.29,292l-1.36-1.45,3.5-3.3-1-1Zm.19,3.51c-1.39-1.42-3.43-.79-5.08.74-2.17,2-2.38,4.41-.46,6.49s4.26,2.12,6.43.12c1.93-1.78,2.51-3.65,1.27-5.17l-1.44,1.34a2.11,2.11,0,0,1-.68,2.73,3.08,3.08,0,0,1-4.16-4.51c.9-.84,2-1.06,2.67-.4Zm-15,10.11,5.68,6.26L87,307.57a2.37,2.37,0,0,0-.15,2.22c.32.36.92.24,1.71-.48a5.21,5.21,0,0,0,1-1.11l-.51-.27a2.44,2.44,0,0,1-.47.58c-.38.34-.75.46-.94.26s-.16-.83.08-1.83l.92-.83-.92-1L84,308.46l-1.56-1.72,3.43-3.12-.93-1-3.43,3.11-1.34-1.48L83.68,301l-.93-1Zm-4.1,8.77-1.61-1.81,2-1.74c1-.89,1.63-1,2.15-.37s.37,1.37-.62,2.26Zm-4-1.58L75.37,318l1.42-1.26-2.22-2.49,1.54-1.37c1.4-1.25,1.9-1.12,3,0a4.94,4.94,0,0,0,1,.88l1.52-1.36a7.91,7.91,0,0,1-1.6-1.34c-.86-.79-1.56-1.09-2.87,0l0,0c1.07-1.11,1.16-2.21.29-3.18-1-1.13-2.37-.93-3.94.47Zm-7.61,6.67,5.57,6.36,1.43-1.24-2.93-3.36,5.83.82,1.88-1.65-6.2-.75.3-5.32-1.76,1.53L66,319.87l-2.43-2.77Zm-10.75,9.23,5.5,6.44,3.6-3.08a2.37,2.37,0,0,0-.21,2.21c.31.37.91.28,1.73-.42a5.44,5.44,0,0,0,1-1.08l-.51-.29a2.42,2.42,0,0,1-.48.57c-.39.33-.77.44-1,.23s-.14-.83.14-1.83l.94-.8-.89-1-3.82,3.25L55.91,330l3.53-3-.9-1-3.52,3-1.3-1.52,3.66-3.12-.9-1Zm-3.57,3,5.47,6.47,1.44-1.23-5.46-6.46Zm-.17,3.66c-1.31-1.48-3.38-1-5.11.47-2.27,1.89-2.6,4.29-.8,6.46s4.15,2.35,6.42.46c2-1.68,2.7-3.52,1.54-5.1l-1.51,1.26a2.11,2.11,0,0,1-.81,2.69,3.09,3.09,0,0,1-3.94-4.72c1-.79,2.1-.95,2.7-.26ZM30.76,346.61l3.68,1.76-2.74,2.21Zm-1.77-.5,2,9.29,1.58-1.28-.5-2L35.83,349l2,.87,1.75-1.42-8.68-3.86Zm-6,4.81,3.12,3.95c.92,1.16.88,2.19-.15,3a1.58,1.58,0,0,1-2.34-.21l-1.49,1.17c1.21,1.49,2.95,1.49,4.78.05,2.25-1.78,1.93-3.63.75-5.12l-3.18-4Z" transform="translate(-22.12 -93.03)"/><path class="cls-3" d="M977.88,389.78l4.81,4.62.45,3.19,1.88-.27-.46-3.19,3.31-5.76-2.23.32-2.15,4-3.15-3.21Zm-7,4.78-.33-2.41,2.6-.35c1.32-.17,1.88.13,2,.91s-.46,1.34-1.79,1.52ZM968.53,391l1.12,8.39,1.88-.25-.44-3.31,2-.28c1.85-.25,2.2.14,2.49,1.69a4.8,4.8,0,0,0,.37,1.3l2-.27a7.84,7.84,0,0,1-.58-2c-.27-1.13-.67-1.77-2.37-1.62v0c1.5-.32,2.19-1.18,2-2.47-.2-1.5-1.44-2.1-3.53-1.82Zm-4.76.61,1.07,8.39,1.88-.24-1.07-8.39Zm-7.3,2.41,2.19,3.44-3.49.42Zm-1.22-1.37L952,401.6l2-.25.66-2,4.84-.58,1.19,1.77,2.23-.26-5.3-7.89Zm-11,1.25.91,8.41,1.89-.2-.39-3.62,4.14-.45-.15-1.37-4.14.45-.23-2,4.4-.48-.15-1.37ZM928,395.49l4.57,4.85.29,3.21,1.89-.17-.29-3.21,3.59-5.59-2.24.21-2.35,3.84-3-3.36Zm-10.79.76.58,8.44,1.71-.11L919,398h0l5.35,6.26,2.55-.18-.58-8.44-1.71.12.45,6.47h0l-5.24-6.15Zm-11.59.46.31,8.46,1.71-.06-.24-6.61h0l5.15,6.43,2.55-.09-.3-8.46-1.71.06.23,6.49h0l-5-6.31Zm-8.72-.22-.28,8.45,6.91.23,0-1.38-5-.17.07-2.32,4.63.15,0-1.38-4.62-.15.06-2,4.8.16.05-1.38Zm-3.69-.42-.63,5c-.19,1.46-.95,2.16-2.25,2a1.59,1.59,0,0,1-1.5-1.82l-1.88-.24c-.21,1.91,1,3.15,3.32,3.45,2.85.36,3.94-1.17,4.18-3.05l.64-5.09Zm-19.09,3.29,1.51-5.5,1.8.5a2.64,2.64,0,0,1,2.12,3.47,2.72,2.72,0,0,1-3.61,2Zm0-7.33-2.25,8.15,3.92,1.09c3.27.9,5-.87,5.57-2.77.73-2.66-.53-4.62-3.34-5.4Zm-8.64,4.57a3.08,3.08,0,1,1,3.87-1.81,2.76,2.76,0,0,1-3.87,1.81m5.71-1.11c1-2.7,0-4.78-3-5.92S863,389.26,862,392s0,4.78,3,5.93,5.16.31,6.2-2.4m-25.56-17.23L844,387.1l2,1.14,5.35-4.7h0l-1.34,7,2,1.16,6.83-5.82-1.64-.95L852,389.6l0,0,1.33-6.86-2.07-1.2-5.22,4.62h0l1.38-6.85Zm-3-5-2.06.56,1.1.76,2.6-.17Zm-5.72,7.58a3.07,3.07,0,1,1,4.19-.81,2.76,2.76,0,0,1-4.19.81m5.8.32c1.66-2.37,1.13-4.65-1.48-6.48s-4.93-1.56-6.6.81-1.14,4.64,1.48,6.48,4.93,1.56,6.6-.81m-16.52-8.8,3.57-4.44,1.45,1.17a2.64,2.64,0,0,1,.57,4,2.71,2.71,0,0,1-4.12.42Zm3-6.7-5.31,6.59,3.17,2.55c2.64,2.12,5,1.2,6.21-.33,1.72-2.14,1.35-4.44-.92-6.28Zm-8.56-7.57L815,364.45l1.27,1.14,4.4-4.94,0,0-.73,8.2,1.91,1.7,5.62-6.32-1.27-1.14L821.85,368h0l.74-8Zm-6.44-6.23L808.25,358l5,4.8,1-1-3.61-3.49,1.62-1.67,3.33,3.22,1-1-3.33-3.22,1.38-1.44,3.46,3.34,1-1Zm-8.84-3.56,1.74-1.7,1.83,1.88c.93,1,1,1.58.46,2.13s-1.35.43-2.28-.52Zm1.4-4-6.05,5.91,1.32,1.36,2.39-2.33,1.45,1.47c1.31,1.34,1.2,1.86.13,3a5.06,5.06,0,0,0-.82,1.07l1.42,1.46a8.21,8.21,0,0,1,1.27-1.66c.75-.89,1-1.6-.12-2.87h0c1.16,1,2.26,1,3.19.14,1.08-1.06.82-2.41-.65-3.92ZM799.87,337l-1,.94,2.19,2.36-5.19,4.82,1.29,1.39,5.19-4.81,2.19,2.36,1-.94Zm-9.61-10.79-6.34,5.61,1.26,1.42,2.72-2.41,3.06,3.45-2.73,2.41,1.26,1.42,6.34-5.61-1.26-1.42L792,333.33l-3-3.45,2.58-2.28Zm-3.5.06c1.45-1.34.89-3.4-.59-5.1-1.94-2.23-4.34-2.51-6.47-.65s-2.25,4.19-.32,6.42c1.73,2,3.58,2.62,5.13,1.43l-1.29-1.49c-.81.5-1.85.23-2.71-.75a3.09,3.09,0,0,1,4.64-4c.8.93,1,2.07.32,2.69ZM775.31,309l-1.25,6.55-2.43,2.11,1.24,1.43,2.44-2.11,6.62-.36-1.47-1.7-4.5.35,1-4.39Zm-5.52-6.5-1.07.88,3.31,4-7.62-.91L763,307.58l5.13,6.21,1.07-.88-3.72-4.49,7.6.92,1.4-1.15Zm-3.14.06c1.42-1.14,1.3-2.87-.09-4.75s-3-2.51-4.47-1.42c-1,.76-1.1,2-.13,3.8l.85,1.54c.47.85.48,1.36,0,1.72s-1.4.26-2.31-1-.89-2.11-.1-2.85l-1.13-1.52c-1.44,1.07-1.41,2.91.07,4.91,1.68,2.26,3.4,2.92,4.83,1.86,1-.73,1.23-1.89.44-3.36l-1.18-2.15c-.41-.76-.37-1.25.1-1.6s1.43,0,1.92.63c.83,1.13.86,1.94.07,2.62Zm-11.39-21.41-5.5,7.1,1.23,1.93,6.91-1.72,0,0-4.43,5.62,1.26,2,8.75-2-1-1.6-6.75,1.72v0l4.34-5.49-1.29-2-6.75,1.7,0,0,4.37-5.45ZM746,279.5a3.08,3.08,0,1,1,4.14,1.05A2.77,2.77,0,0,1,746,279.5m5.12,2.76c2.51-1.43,3-3.72,1.42-6.49s-3.8-3.51-6.31-2.08-3,3.71-1.43,6.49,3.8,3.52,6.32,2.08m-6.53-20.64-7.47,4,.81,1.51L743.8,264v0l-3.52,7.44,1.2,2.26,7.46-4-.8-1.51-5.73,3v0l3.48-7.28Zm-2-3.92-4.48,2.3c-1.32.67-2.32.43-2.92-.74a1.58,1.58,0,0,1,.66-2.26l-.86-1.69c-1.7.91-2,2.61-1,4.69,1.31,2.55,3.18,2.59,4.87,1.73l4.57-2.34Zm-6.74-10.09-2.52,3.21-1.56-3.16Zm.88-1.61-9.5-.12.9,1.83,2.1,0,2.16,4.37-1.27,1.71,1,2,5.67-7.63Zm-6.67-13.67L722.49,236l.74,1.54,5.95-2.88v0l-3.8,7.3,1.11,2.3,7.61-3.69-.74-1.54-5.84,2.83,0,0,3.75-7.15Zm-5.82-12-3.77,1.82-.82-.59-1.07.52.82.59L716.67,224l2.85,5.89,1.24-.6-2-4.19,2.43-1.18,2.06,1.51,1.08-.53-2.06-1.5,2.86-1.38Zm-1.07-7.21-2.07-.5.58,1.2,2.37,1.1ZM714.53,217a3.07,3.07,0,1,1,4.06,1.31,2.77,2.77,0,0,1-4.06-1.31m4.93,3.08c2.6-1.27,3.23-3.52,1.83-6.39s-3.56-3.75-6.17-2.48-3.23,3.52-1.83,6.39,3.57,3.75,6.17,2.48m-4.81-19.27-7.56,3.79.85,1.7,4-2-2.26,5.44,1.13,2.24,2.28-5.82,5.08,1.62-1-2.08-4.9-1.54,3.3-1.65Zm-9.87-3.26a3.07,3.07,0,1,1,4.09,1.22,2.76,2.76,0,0,1-4.09-1.22m5,3c2.58-1.33,3.16-3.59,1.69-6.43s-3.65-3.66-6.22-2.33-3.16,3.58-1.69,6.42,3.65,3.67,6.22,2.34M701,175.08l-6,6.7,1.09,2,7-1.24v0l-4.8,5.3,1.11,2,8.87-1.41-.91-1.67-6.85,1.24v0l4.7-5.17-1.14-2.1L697.28,182v0l4.73-5.13Zm-6.91-11.55-7.23,4.4,2.46,4a2.35,2.35,0,0,0-2.15-.57c-.41.25-.42.86.14,1.78a5.41,5.41,0,0,0,.91,1.15l.36-.46a2.17,2.17,0,0,1-.48-.57c-.26-.43-.31-.82-.08-1s.85,0,1.78.42l.65,1.06,1.18-.71-2.61-4.29,2-1.21,2.4,4,1.18-.72-2.4-4,1.7-1,2.5,4.11,1.18-.72Zm-2.6-4.13-7.14,4.54,1,1.6,7.14-4.54Zm-3.71-1.11c1.47-1.07,1.44-2.8.14-4.75-1.2-1.8-2.86-2.65-4.38-1.64-1.07.71-1.21,2-.32,3.79l.76,1.58c.44.88.42,1.38-.08,1.71s-1.42.2-2.26-1.07-.79-2.15.05-2.85l-1.06-1.57c-1.49,1-1.55,2.83-.18,4.9,1.56,2.34,3.26,3.09,4.74,2.1,1-.68,1.32-1.82.6-3.33L684.76,155c-.38-.77-.32-1.27.17-1.59.64-.42,1.44.06,1.88.73.78,1.17.77,2,0,2.62Zm-7.39-18.62-2.13-.08.81,1.06,2.54.61Zm-1.37,6.23c1.54-1.25,1.1-3.34-.26-5.13-1.8-2.34-4.18-2.78-6.42-1.06s-2.52,4-.72,6.39c1.59,2.09,3.4,2.85,5,1.75l-1.19-1.56a2.12,2.12,0,0,1-2.66-.93,3.08,3.08,0,0,1,4.88-3.73c.75,1,.86,2.13.15,2.71Zm-9.62-16-6.34,5.6,3.14,3.56a2.37,2.37,0,0,0-2.22-.18c-.36.32-.26.92.46,1.72a5.11,5.11,0,0,0,1.09,1l.28-.52a2.44,2.44,0,0,1-.58-.47c-.33-.38-.45-.76-.24-.94s.83-.16,1.83.1l.82.93,1-.91L665.38,136l1.74-1.54,3.07,3.47,1-.91-3.06-3.47,1.49-1.32,3.18,3.6,1-.92ZM660,125.85l1.69-1.74,1.88,1.82c1,.93,1.07,1.55.52,2.12s-1.33.47-2.29-.46Zm1.29-4-5.89,6.07,1.37,1.32,2.32-2.4,1.48,1.44c1.35,1.3,1.26,1.82.22,3a5.57,5.57,0,0,0-.79,1.09l1.46,1.42a8.17,8.17,0,0,1,1.22-1.69c.72-.92,1-1.63-.2-2.86l0,0c1.19,1,2.29,1,3.19.05,1.06-1.08.76-2.43-.75-3.89Zm-8.48-7-5.3,6.6L649,122.6l2.79-3.47L652,125l1.95,1.57-.33-6.24,5.29-.64-1.82-1.46-5.1.64,2.31-2.88Zm-7.72-3.45-.51,4-3-1.89Zm-.08-1.84-8.2,4.8,1.72,1.1,1.77-1.12,4.11,2.63-.21,2.13,1.9,1.21.92-9.46Zm-12.23-6.66-.62,1.24,4.64,2.31-7.33,2.25-.8,1.61,7.21,3.59.61-1.24-5.21-2.6,7.32-2.23.81-1.63Zm-12.62,2.38-.54,1.55,1.55.53.54-1.54Zm2.16-6.47-1.78,5.86,1.24.43L624,99.35Zm-10.66-3-2.13,8.19,4.6,1.2c-1,.11-1.82.63-1.94,1.09s.29.9,1.34,1.17a5.4,5.4,0,0,0,1.45.2l-.06-.59a2.3,2.3,0,0,1-.74-.07c-.49-.12-.8-.37-.73-.64s.6-.59,1.57-.93l1.21.31.34-1.34-4.85-1.26.58-2.24,4.48,1.16.35-1.34-4.48-1.16.5-1.93,4.65,1.2.34-1.33Zm-3.5,2c.26-2-1.5-3.18-3.72-3.54-2.92-.46-4.94.87-5.38,3.66s1,4.66,3.88,5.12c2.59.42,4.42-.28,4.85-2.19l-2-.31c-.3.9-1.27,1.36-2.56,1.16a3.09,3.09,0,0,1,1-6.07c1.21.2,2.09,1,2,1.86ZM589.89,93l-.5,8.44,4.74.28c-.92.3-1.66,1-1.69,1.45s.47.83,1.54.89a5.28,5.28,0,0,0,1.46-.09l-.16-.56a2.4,2.4,0,0,1-.75.08c-.5,0-.85-.22-.84-.49s.48-.7,1.37-1.22l1.24.07.08-1.38-5-.29.14-2.32,4.62.27.08-1.38-4.62-.27.11-2,4.8.28.08-1.38Zm-9.56,3.88-.06-2.43,2.62,0c1.33,0,1.86.33,1.87,1.12s-.6,1.28-1.94,1.31Zm-2-3.77.18,8.46,1.9,0-.08-3.34,2.07,0c1.87,0,2.17.38,2.29,1.95a4.75,4.75,0,0,0,.22,1.33l2,0a7.59,7.59,0,0,1-.34-2.06c-.15-1.16-.48-1.84-2.18-1.87v0c1.53-.15,2.31-.92,2.29-2.23,0-1.51-1.2-2.24-3.31-2.2Zm-10.89,1.09.92,8.41,1.89-.21L569.78,98l4.31,4,2.49-.27-4.65-4.17,3.29-4.19-2.32.25-3.15,4.06L569.34,94Zm-14.84,2.71,1.72,8.29,4.65-1c-.81.53-1.35,1.37-1.26,1.84s.67.68,1.72.46a5.2,5.2,0,0,0,1.39-.47l-.31-.5a2.25,2.25,0,0,1-.69.27c-.5.1-.89,0-.94-.25s.27-.8,1-1.54l1.21-.25-.28-1.35-4.91,1-.47-2.28,4.53-.94-.28-1.35-4.53.94-.41-2,4.71-1-.28-1.35Zm-4.91,1.24,2.06,8.2,1.84-.46-2.06-8.2Zm-2,3.29c-.62-1.88-2.72-2.22-4.88-1.58-2.83.84-4.09,2.91-3.28,5.62s2.88,3.79,5.72,2.95c2.51-.75,3.86-2.17,3.42-4.08l-1.89.56c.12,1-.56,1.79-1.8,2.16a3.09,3.09,0,0,1-1.75-5.89c1.18-.35,2.29,0,2.58.82Zm-21,6.44,3.16,2.58-3.17,1.5Zm-1.6-.9-.27,9.5,1.85-.88v-2.1l4.4-2.09,1.69,1.3,2-1L525.21,106Zm-7.4,3.85,2.45,4.4c.72,1.29.52,2.3-.63,2.94a1.58,1.58,0,0,1-2.28-.58l-1.66.93c1,1.66,2.68,1.94,4.71.8,2.51-1.39,2.49-3.27,1.56-4.93l-2.49-4.48Z" transform="translate(-22.12 -93.03)"/></g></svg>