<svg id="Layer_1" data-name="Layer 1" xmlns="http://www.w3.org/2000/svg" xmlns:xlink="http://www.w3.org/1999/xlink" viewBox="0 0 671.51 313.59"><defs><style>.cls-1{fill:none;}.cls-2{clip-path:url(#clip-path);}.cls-3{fill:#71ea78;}</style><clipPath id="clip-path" transform="translate(-19.37 -20.61)"><rect class="cls-1" x="19.37" y="20.61" width="671.51" height="313.59"/></clipPath></defs><g class="cls-2"><path class="cls-3" d="M684.2,111.19l-.66,8.44,4.73.37c-.93.28-1.69.94-1.72,1.42s.45.83,1.52.92a5.45,5.45,0,0,0,1.46-.06l-.15-.57a2.12,2.12,0,0,1-.75.06c-.5,0-.85-.23-.83-.5s.49-.69,1.39-1.2l1.24.1.11-1.38-5-.39.18-2.31,4.61.36.11-1.38-4.61-.36.15-2,4.79.38.11-1.38Zm-4.16-.55L678.86,119l1.88.27,1.18-8.38Zm-2.76,2.17c.3-1.79-.94-3-3.23-3.47-2.13-.44-3.91.13-4.27,1.92-.26,1.25.53,2.25,2.43,2.92l1.66.58c.92.32,1.27.69,1.15,1.27s-.87,1.14-2.36.83-2.08-1-2-2l-1.85-.38c-.37,1.75.89,3.11,3.32,3.61,2.76.57,4.48-.1,4.84-1.84.25-1.2-.34-2.23-1.91-2.79l-2.31-.82c-.82-.29-1.12-.68-1-1.26.15-.74,1.06-1,1.85-.8,1.38.28,1.94.86,1.8,1.9Zm-15.59-9.12-1.86,1,1.25.48,2.48-.81Zm2.09,6c.66-1.87-.81-3.42-2.91-4.23-2.75-1.06-5-.18-6,2.46s0,4.76,2.74,5.82c2.45.94,4.38.64,5.19-1.15l-1.84-.7c-.47.82-1.52,1.07-2.74.61a3.09,3.09,0,0,1,2.2-5.74c1.15.44,1.85,1.36,1.55,2.22ZM649,100.37,645.27,108l4.25,2.11a2.37,2.37,0,0,0-2.13.67c-.21.43.11.94,1.07,1.42a5,5,0,0,0,1.38.49l.07-.58a2.35,2.35,0,0,1-.71-.22c-.46-.23-.71-.53-.59-.78s.71-.45,1.74-.59l1.11.55.61-1.23-4.49-2.24,1-2.07,4.15,2.06.62-1.24-4.15-2.06.89-1.79,4.3,2.14.61-1.24Zm-9-1,1.29-2.06,2.22,1.38c1.13.71,1.37,1.3,1,2s-1.2.74-2.34,0Zm.41-4.24L636,102.32l1.61,1,1.77-2.83,1.75,1.09c1.59,1,1.61,1.51.85,2.89a5.53,5.53,0,0,0-.55,1.23l1.73,1.08a7.56,7.56,0,0,1,.84-1.91c.51-1.05.61-1.8-.8-2.76v0c1.37.72,2.45.49,3.14-.61.8-1.29.23-2.54-1.56-3.66Zm-7.66-5.64-5,6.79,1.53,1.13,2.65-3.57.43,5.87,2,1.5L633.79,95l5.26-.83-1.87-1.39-5.07.83,2.2-3Zm-6.24-3.28-1.06,3.94-2.67-2.29Zm.18-1.82L618,88l1.54,1.33,1.91-.86,3.7,3.18-.5,2.08,1.7,1.46L628.55,86Zm-9.3-8.55-.95,1,3.77,3.55-7.67,0-1.23,1.3,5.86,5.52.95-1-4.24-4,7.65,0,1.25-1.32Zm-11.79-2.09-1.16,1.16,1.15,1.16,1.16-1.16Zm4.78-4.87-4.17,4.49.93.93,4.49-4.16Zm-7.29-7.38-6,5.95,3.34,3.37a2.37,2.37,0,0,0-2.23,0c-.35.34-.21.92.55,1.69a5.35,5.35,0,0,0,1.14.91l.26-.52a2.3,2.3,0,0,1-.61-.45c-.35-.36-.49-.73-.3-.92s.83-.2,1.84,0l.87.89,1-1-3.52-3.57,1.65-1.63,3.25,3.29,1-1-3.25-3.29,1.42-1.4,3.37,3.42,1-1Zm-3.57.2c1.36-1.45.65-3.46-.94-5.05-2.09-2.09-4.51-2.2-6.5-.2s-2,4.34.13,6.43c1.86,1.85,3.75,2.37,5.22,1.06l-1.4-1.39c-.77.56-1.83.36-2.75-.56a3.09,3.09,0,0,1,4.34-4.35c.87.87,1.14,2,.51,2.66ZM588.5,47.12l-5.85,6.11,3.43,3.28a2.42,2.42,0,0,0-2.23,0c-.33.35-.18.94.6,1.68a5.38,5.38,0,0,0,1.17.88l.24-.54a2.26,2.26,0,0,1-.62-.42c-.36-.35-.51-.72-.32-.92s.81-.22,1.83-.05l.9.86,1-1L585,53.55l1.6-1.68,3.35,3.2,1-1-3.34-3.2,1.38-1.44,3.47,3.32,1-1Zm-9.45-3.36,1.61-1.82,2,1.73c1,.89,1.14,1.51.62,2.1s-1.31.53-2.32-.35Zm1.1-4.11L574.55,46,576,47.25l2.21-2.5,1.55,1.36c1.41,1.24,1.34,1.76.36,3a4.6,4.6,0,0,0-.74,1.13l1.53,1.35A7.49,7.49,0,0,1,582,49.83c.68-.95.9-1.67-.33-2.85l0,0c1.23.93,2.33.89,3.19-.09s.65-2.46-.94-3.86ZM571.36,33l-5,6.85L567.93,41l2.61-3.61.5,5.86,2,1.48-.64-6.22,5.25-.89-1.89-1.37-5.06.89,2.17-3Zm-13.71-7.61L553.89,33l4.25,2.11a2.35,2.35,0,0,0-2.12.67c-.21.43.11.95,1.07,1.42a5,5,0,0,0,1.38.49l.07-.58a2.35,2.35,0,0,1-.71-.22c-.46-.23-.71-.53-.59-.78s.71-.45,1.73-.59l1.12.55.61-1.24-4.49-2.22,1-2.08,4.15,2.05.61-1.24-4.15-2,.89-1.79,4.3,2.14.62-1.24Zm-5.28-1.94-2.93,7.94,1.78.66,2.93-7.94Zm-4.14,1.42c.35-1.95-1.34-3.25-3.54-3.71-2.89-.6-5,.62-5.56,3.39s.74,4.7,3.63,5.31c2.57.54,4.43-.07,5-2l-1.93-.4a2.1,2.1,0,0,1-2.61,1A2.75,2.75,0,0,1,541.06,25a2.75,2.75,0,0,1,3.37-2.43c1.2.25,2,1.05,1.88,1.95Zm-23-2.6,2.27,3.38-3.48.52ZM524,21l-3,9,2-.3.6-2,4.83-.71,1.23,1.74,2.23-.33-5.51-7.74Zm-9.1,2.28L516.53,28c.48,1.39.11,2.35-1.13,2.78a1.58,1.58,0,0,1-2.15-1l-1.79.62c.66,1.8,2.3,2.37,4.5,1.61,2.71-.94,3-2.79,2.39-4.59l-1.69-4.85ZM504,36.06l.87,1.39,1.39-.88-.87-1.38Zm-12.48,1.12L498,38.46l2.1,2.44,1.44-1.23-2.11-2.45-.32-6.63-1.71,1.47.33,4.5-4.39-1Zm-3,9.27-1.88-1.53,1.65-2c.85-1,1.46-1.2,2.07-.7s.58,1.29-.26,2.33Zm-4.15-.93,6.56,5.34,1.2-1.47-2.59-2.11,1.3-1.6c1.19-1.45,1.71-1.41,3-.48a4.89,4.89,0,0,0,1.15.7l1.29-1.58a7.72,7.72,0,0,1-1.79-1.07c-1-.64-1.71-.83-2.84.44h0c.88-1.27.79-2.37-.22-3.19-1.17-1-2.48-.54-3.81,1.09Zm-3.16,4.71,7,4.69,1.05-1.58-7.05-4.69Zm-2.92,7.9,4.08.22-1.69,3.09Zm-1.82.21,5.37,7.84,1-1.8-1.24-1.69,2.33-4.28,2.14.06,1.07-2-9.5-.25Zm-5.16,10.52,7.66,3.58.81-1.72-3.3-1.54,1.77-3.78L477,64.81l-1.77,3.78-1.87-.87,1.87-4-1.25-.59Zm-6.54,15.58,6.4-1.83,3,1.22.72-1.76-3-1.22-3.31-5.75-.85,2.08L470,81l-4.36,1.11Zm-4,10.41,7.89,3.05.62-1.6-6.17-2.38v0L471,91.7l.92-2.38-7.9-3-.61,1.59,6.05,2.34v0l-7.79,2.14Zm-4.27,11.06,7.88,3.06.62-1.59L458.79,105v0l7.94-2.18.93-2.38-7.89-3.07-.62,1.6,6,2.35v0l-7.79,2.12ZM453,114.44l7.84,3.17,2.59-6.41-1.28-.52-1.88,4.65-2.15-.87,1.73-4.29-1.28-.52-1.73,4.29L455,113.2l1.8-4.46-1.28-.52Zm-1.67,3.91,4.61,2c1.35.6,1.81,1.52,1.28,2.73a1.58,1.58,0,0,1-2.17.91l-.76,1.74c1.77.74,3.31-.07,4.24-2.21,1.15-2.63,0-4.1-1.74-4.87l-4.7-2.06Zm-1.56,19.74-5.06-2.61.86-1.66a2.63,2.63,0,0,1,3.83-1.36,2.72,2.72,0,0,1,1.24,3.95Zm-7.16-1.56,7.52,3.88,1.87-3.62c1.55-3,.18-5.11-1.57-6-2.45-1.26-4.62-.44-6,2.16Zm3,9.62a3.07,3.07,0,1,1-1.2-4.1,2.77,2.77,0,0,1,1.2,4.1m-.23-5.81c-2.52-1.43-4.73-.68-6.31,2.09s-1.09,5.06,1.43,6.49,4.72.7,6.31-2.09,1.09-5.05-1.43-6.49m-20,24.2,8.72,2.15,1.26-1.9-4.37-5.63h0l6.93,1.76,1.29-1.95-5.4-7.17-1,1.58,4.3,5.48v0l-6.77-1.74-1.32,2,4.29,5.49v0l-6.75-1.79Zm-5.2,3.29.53,2.06.78-1.08-.13-2.61Zm7.49,5.84a3.08,3.08,0,1,1-.74-4.2,2.77,2.77,0,0,1,.74,4.2m.41-5.8c-2.34-1.7-4.63-1.2-6.5,1.38s-1.64,4.91.7,6.61,4.63,1.21,6.51-1.38,1.64-4.9-.71-6.61m-8.9,16.56-4.48-3.52,1.15-1.46a2.64,2.64,0,0,1,4-.62,2.72,2.72,0,0,1,.48,4.12Zm-6.74-2.88,6.66,5.23,2.51-3.2c2.09-2.67,1.14-5-.4-6.2-2.17-1.7-4.47-1.3-6.27,1Zm-7.39,8.9,6.49,5.44,1.1-1.31-5.07-4.25v0l8.23.48,1.64-2-6.49-5.43-1.1,1.31,5,4.17,0,0-8-.49Zm-6,6.82,6.34,5.6,4.57-5.18-1-.92-3.32,3.76L403.82,199l3.06-3.47-1-.92-3.07,3.47-1.49-1.32,3.18-3.6-1-.92Zm-3.16,9-1.77-1.65,1.78-1.92c.91-1,1.54-1.09,2.11-.56s.5,1.33-.41,2.31Zm-4.08-1.21,6.19,5.77,1.3-1.39-2.45-2.27,1.41-1.51c1.28-1.37,1.8-1.29,3-.28a4.62,4.62,0,0,0,1.11.77l1.39-1.49a7.84,7.84,0,0,1-1.72-1.18c-.93-.71-1.65-1-2.86.25l0,0c1-1.2.95-2.31,0-3.19-1.11-1-2.45-.71-3.89.83Zm-7,7.17,1,1,2.26-2.3,5.05,5,1.33-1.35-5.05-5,2.26-2.3-1-1Zm-10.33,9.93,5.81,6.15,1.38-1.31-2.5-2.64,3.35-3.16,2.5,2.64,1.37-1.3-5.81-6.15-1.38,1.3,2.37,2.5-3.35,3.17-2.37-2.5Zm.26,3.43c-1.37-1.43-3.42-.84-5.09.66-2.2,2-2.45,4.38-.56,6.49s4.22,2.19,6.42.22c2-1.76,2.58-3.61,1.36-5.15l-1.47,1.31a2.11,2.11,0,0,1-.71,2.72,3.08,3.08,0,0,1-4.1-4.57c.91-.82,2.05-1,2.68-.36ZM357.58,237l6.54,1.3,2.1,2.44,1.44-1.24-2.1-2.44-.32-6.63-1.71,1.46.32,4.5-4.38-1ZM351,242.39l.87,1.07,4-3.27-1,7.61,1.13,1.39,6.24-5.08-.87-1.07-4.52,3.67,1-7.58-1.15-1.41Zm-.08,3.31c-1.17-1.39-2.89-1.24-4.74.21s-2.44,3.05-1.31,4.49c.78,1,2.05,1.06,3.8,0l1.51-.88c.85-.5,1.35-.52,1.72-.05s.3,1.4-.9,2.34-2.09.94-2.84.16l-1.5,1.17c1.1,1.42,2.95,1.34,4.91-.18,2.22-1.73,2.83-3.47,1.74-4.88-.75-1-1.92-1.18-3.36-.35L347.79,249c-.74.43-1.24.41-1.6-.06s-.05-1.43.59-1.93c1.11-.86,1.92-.91,2.61-.13Zm-21,12.68,7.45,5,1.84-1.36L337,255.26l0,0,5.9,4,1.87-1.38-2.6-8.59-1.53,1.12,2.16,6.63h0l-5.76-4-1.93,1.42,2.15,6.63h0l-5.72-4Zm-.92,9.47a3.08,3.08,0,1,1,.7-4.21,2.77,2.77,0,0,1-.7,4.21m2.32-5.32c-1.64-2.39-4-2.68-6.59-.88s-3.18,4.08-1.54,6.47,4,2.68,6.59.87,3.18-4.08,1.54-6.46m-20,8.35,4.65,7.08,1.43-.94-3.63-5.53h0l7.73,2.83,2.14-1.4L319,265.83l-1.42.94,3.56,5.43h0l-7.57-2.79Zm-3.69,2.31,2.68,4.27c.78,1.25.63,2.27-.48,3a1.59,1.59,0,0,1-2.31-.46l-1.61,1c1,1.61,2.77,1.81,4.75.57,2.43-1.52,2.31-3.4,1.3-5l-2.72-4.35Zm-9.45,7.53,3.4,2.26-3,1.8Zm-1.67-.75.63,9.48,1.75-1.05-.21-2.09,4.19-2.49,1.81,1.13,1.93-1.15-8.05-5.05Zm-13.08,7.51,4.17,7.36L289,294l-3.26-5.75h0l7.53,3.32,2.22-1.26-4.17-7.36-1.49.85,3.2,5.65h0l-7.37-3.29Zm-11.56,6.15,1.95,3.7-.57.84.56,1.06.56-.84,1.43,2.73,5.8-3.05-.64-1.22L276.78,299l-1.26-2.39,1.44-2.11-.55-1.06L275,295.56l-1.48-2.82Zm-7,1.11-.48,2.08,1.19-.6,1.08-2.38Zm4,8.63a3.08,3.08,0,1,1,1.26-4.08,2.76,2.76,0,0,1-1.26,4.08m3-5c-1.3-2.59-3.56-3.2-6.41-1.76s-3.7,3.61-2.4,6.2,3.55,3.19,6.41,1.75,3.7-3.61,2.4-6.19m-19.1,4.65,3.64,7.64,1.72-.82-1.92-4,5.39,2.37,2.26-1.08L258,304.74l1.72-5-2.1,1L256,305.58l-1.59-3.34Zm-3.52,9.5a3.07,3.07,0,1,1,1.55-4,2.76,2.76,0,0,1-1.55,4m3.36-4.74c-1.12-2.67-3.33-3.43-6.27-2.2s-3.95,3.35-2.83,6,3.32,3.43,6.28,2.2,3.94-3.35,2.82-6m-25.82,5.32,5.64,7,2.15-.75-.07-7.12h0l4.45,5.6,2.2-.77.05-9-1.79.63.1,7h0l-4.33-5.49-2.26.79.09,7h0l-4.29-5.5Zm-12,3.32,2.22,8.17,4.58-1.25c-.78.58-1.27,1.45-1.14,1.92s.7.63,1.74.35a5.85,5.85,0,0,0,1.36-.55l-.34-.48a2.2,2.2,0,0,1-.68.31c-.49.13-.88.07-1-.19s.23-.82.9-1.6l1.2-.32-.36-1.34-4.84,1.32-.61-2.24,4.47-1.22-.37-1.33-4.46,1.21-.53-1.92,4.64-1.26-.36-1.33Zm-4.31,1,2,8.23,1.84-.44-1.94-8.23Zm-2,3.07c-.45-1.76-2.06-2.37-4.36-1.88-2.12.45-3.52,1.69-3.14,3.47.27,1.25,1.39,1.85,3.41,1.7l1.74-.14c1-.07,1.45.13,1.57.71s-.34,1.39-1.83,1.71-2.29-.06-2.63-1.09l-1.86.4c.38,1.75,2.07,2.49,4.5,2,2.75-.59,4.07-1.89,3.7-3.63-.26-1.19-1.21-1.9-2.88-1.78l-2.44.17c-.86.07-1.3-.18-1.42-.75-.16-.74.58-1.31,1.37-1.48,1.38-.29,2.13,0,2.41,1Zm-18.93-1.28-1.1,1.82,1.32-.19,1.76-1.93Zm4.79,4.21c-.35-1.95-2.39-2.58-4.61-2.24-2.92.44-4.45,2.31-4,5.11s2.33,4.15,5.25,3.71c2.6-.39,4.13-1.61,4-3.56l-1.95.29c0,.95-.8,1.69-2.09,1.88a3.08,3.08,0,0,1-.91-6.07c1.21-.19,2.28.27,2.44,1.17Zm-17.88-.35.95,8.4L182,331c-.86.45-1.47,1.24-1.42,1.71s.6.74,1.67.62a5.18,5.18,0,0,0,1.42-.34l-.25-.52a2.77,2.77,0,0,1-.72.2c-.51.05-.89-.07-.92-.34s.36-.77,1.14-1.44l1.24-.13-.16-1.38-5,.56-.26-2.31,4.6-.51-.15-1.38-4.6.52-.23-2,4.78-.54L183,322.4Zm-8.34,4.5-.18-2.42,2.6-.2c1.34-.1,1.88.24,1.94,1s-.54,1.31-1.87,1.41ZM165.82,324l.64,8.43,1.89-.14L168.1,329l2.05-.16c1.87-.14,2.2.27,2.4,1.83a4.26,4.26,0,0,0,.29,1.32l2-.15a7.46,7.46,0,0,1-.46-2c-.2-1.14-.57-1.81-2.27-1.75v0c1.52-.24,2.26-1.06,2.16-2.35-.12-1.51-1.32-2.18-3.42-2Zm-9.9.44.35,8.46,1.89-.08-.18-4.45,4,4.29,2.5-.1-4.36-4.48,3.57-4-2.33.1L158,328.05l-.15-3.69Zm-7.18,1.6,1.79,3.67-3.51,0Zm-1.07-1.49-4.23,8.5,2,0,.87-1.9,4.87-.05,1,1.89,2.25,0-4.4-8.42Zm-12.7-.22,0,1.38,5.18.15-5.7,5.13,0,1.79,8,.23,0-1.38-5.82-.17,5.7-5.1.06-1.81Zm-10.19,6.3-.1,1.63,1.63.11.11-1.64Zm.36-6.82-.15,6.13,1.31.08.62-6.09Zm-10.21-.8-.71,8.43,4.73.4c-.93.27-1.69.93-1.73,1.41s.45.83,1.52.92a5.12,5.12,0,0,0,1.46-.05l-.15-.56a2.37,2.37,0,0,1-.75.05c-.5,0-.85-.23-.82-.5s.49-.69,1.39-1.19l1.24.1.11-1.38-5-.42.2-2.31,4.61.39.12-1.38-4.62-.39.17-2,4.79.4.11-1.38Zm-2.36,2.48c.17-2-1.64-3.12-3.87-3.37-2.94-.34-4.9,1.07-5.23,3.88s1.17,4.61,4.1,4.95c2.61.3,4.41-.47,4.75-2.4l-2-.23c-.25.92-1.21,1.42-2.5,1.27a3.08,3.08,0,0,1,.7-6.1c1.23.14,2.13.86,2,1.77Zm-17.31-4.9L94.09,329l4.7.66c-.94.22-1.73.83-1.8,1.31s.4.86,1.47,1a5.55,5.55,0,0,0,1.46,0l-.12-.57a2.36,2.36,0,0,1-.75,0c-.5-.07-.83-.29-.8-.55s.53-.66,1.46-1.12l1.23.18.19-1.37-5-.69.32-2.3,4.59.63.19-1.36-4.59-.64.28-2,4.76.67.19-1.37ZM86,322.94l.4-2.39L89,321c1.32.22,1.77.68,1.64,1.45s-.84,1.15-2.16.92Zm-1.24-4.07-1.4,8.35,1.87.31.55-3.29,2,.34c1.85.31,2.07.78,1.89,2.34a4.91,4.91,0,0,0,0,1.35l2,.34a8,8,0,0,1,0-2.08c.08-1.17-.12-1.9-1.78-2.25v0c1.54.13,2.45-.49,2.66-1.77.25-1.49-.76-2.43-2.84-2.78ZM75,317l-1.61,8.3,1.86.36.85-4.37,2.92,5.1,2.47.48-3.21-5.36,4.38-3L80.34,318,76.13,321l.7-3.62ZM61.35,314l-1.93,8.24,4.63,1.08c-1,.13-1.81.67-1.92,1.14s.32.89,1.37,1.14a5.65,5.65,0,0,0,1.46.16l-.07-.59a2.34,2.34,0,0,1-.75-.05c-.49-.11-.8-.36-.74-.62s.58-.61,1.55-1l1.21.28.31-1.35-4.88-1.14.52-2.26,4.51,1.05.32-1.34-4.51-1.05.45-1.95,4.68,1.1.31-1.35Zm-4.43-1.11L54.85,321l1.84.47,2.07-8.21Zm-3,2c.46-1.92-1.15-3.32-3.32-3.92-2.85-.77-5,.32-5.75,3.05s.45,4.74,3.3,5.52c2.54.69,4.43.2,5.06-1.66l-1.9-.52c-.39.87-1.41,1.22-2.67.88a3.09,3.09,0,0,1,1.62-5.93c1.19.33,2,1.18,1.76,2.06Zm-19.54-6.94.54,4.05-3.34-1.08Zm-.55-1.75-6.69,6.74,1.94.62L30.51,312l4.64,1.49.34,2.11,2.15.68-1.53-9.37Zm-7.07-2.41L25,308.5c-.51,1.39-1.4,1.9-2.64,1.45a1.59,1.59,0,0,1-1-2.11l-1.79-.65c-.62,1.82.29,3.3,2.48,4.1,2.7,1,4.1-.27,4.75-2.05l1.75-4.83Z" transform="translate(-19.37 -20.61)"/></g></svg>