<svg id="Layer_1" data-name="Layer 1" xmlns="http://www.w3.org/2000/svg" viewBox="0 0 322.73 451.31"><defs><style>.cls-1{fill:#71ea78;}</style></defs><path class="cls-1" d="M43.3,456.66l4.14,3c1.53,1.12,2.33,2.82.63,5.13-1.38,1.88-3,2.34-4.62,1.23l1.12-1.53a1.59,1.59,0,0,0,2.32-.42c.78-1.06.54-2.07-.65-2.94l-4.06-3Z" transform="translate(-42.18 -15.34)"/><path class="cls-1" d="M47.76,450.11l9.44,1.12-1.26,1.87-2.11-.25-2.72,4,1.08,1.8-1.13,1.69-4.63-8.29Zm2.58,5.46,2-2.93-4-.58Z" transform="translate(-42.18 -15.34)"/><path class="cls-1" d="M59.18,436.86c-.8-.45-1.83.08-2.46,1.14A3.08,3.08,0,0,0,62,441.14c.67-1.12.6-2.19-.13-2.8l1-1.7c1.62,1.11,1.59,3.06.24,5.32-1.51,2.54-3.75,3.17-6.2,1.71s-2.91-3.82-1.4-6.36c1.15-1.93,2.93-3.11,4.67-2.15Z" transform="translate(-42.18 -15.34)"/><path class="cls-1" d="M60,430.11l7.37,4.15-.93,1.65L59,431.76Z" transform="translate(-42.18 -15.34)"/><path class="cls-1" d="M64.43,421.91l1.22.65-2.27,4.23,1.76.95,2.19-4.08,1.21.65-2.19,4.08,2.05,1.1,2.37-4.42,1.22.65-.59,1.1c.1,1,.25,1.59.54,1.75s.55-.12.79-.56a2.4,2.4,0,0,0,.25-.71l.57.09a5,5,0,0,1-.53,1.36c-.51.95-1,1.26-1.45,1a2.38,2.38,0,0,1-.61-2.15l-2.24,4.18-7.46-4Z" transform="translate(-42.18 -15.34)"/><path class="cls-1" d="M68.62,413.76l3.32,1.63-1.75-4.84,1-2.09,1.78,5,6-1.7L77.91,414l-5.69,1.5,4,2-.84,1.71-7.59-3.72Z" transform="translate(-42.18 -15.34)"/><path class="cls-1" d="M74.27,401.9c.87-1.91,2-2.64,3.42-2,1.18.54,1.54,1.58,1,3h0c.77-1.52,1.53-1.52,2.63-1.15a7.4,7.4,0,0,0,2,.58l-.84,1.86a4.82,4.82,0,0,1-1.3-.39c-1.46-.57-2-.48-2.75,1.22l-.86,1.88,3,1.38L79.87,410l-7.7-3.51Zm3.18,2.2c.56-1.21.46-2-.33-2.31s-1.27,0-1.83,1.2l-1.08,2.38,2.21,1Z" transform="translate(-42.18 -15.34)"/><path class="cls-1" d="M79.21,390.65l1.27.54-1.89,4.42,1.83.78,1.82-4.26,1.27.55-1.82,4.25,2.14.92,2-4.62,1.27.55-.49,1.14c.19,1,.39,1.57.69,1.7s.54-.17.74-.63a2.24,2.24,0,0,0,.18-.73l.59,0a5.63,5.63,0,0,1-.41,1.4c-.43,1-.92,1.34-1.36,1.15s-.82-1.11-.79-2.08l-1.87,4.37-7.78-3.33Z" transform="translate(-42.18 -15.34)"/><path class="cls-1" d="M85.11,383.23c-.86-.32-1.79.37-2.25,1.51A3.09,3.09,0,0,0,88.57,387a2.11,2.11,0,0,0-.57-2.75l.73-1.83c1.77.83,2,2.77,1.07,5.21-1.09,2.74-3.21,3.72-5.85,2.66s-3.47-3.31-2.38-6.06c.83-2.09,2.4-3.53,4.27-2.85Z" transform="translate(-42.18 -15.34)"/><path class="cls-1" d="M86.42,372.15l1.29.48-1.66,4.51,1.87.69,1.6-4.35,1.3.48-1.61,4.35,2.18.8,1.74-4.71,1.3.48L94,376.05c.24,1,.46,1.54.77,1.66s.53-.19.71-.66a2.26,2.26,0,0,0,.14-.74h.59a5.38,5.38,0,0,1-.34,1.42c-.37,1-.85,1.39-1.3,1.22a2.35,2.35,0,0,1-.89-2L92,381.37l-7.94-2.93Z" transform="translate(-42.18 -15.34)"/><path class="cls-1" d="M88.18,367.12l5.7,2.23-.43,1.24L87.6,368.8Zm6.42,2.3,1.55.54-.54,1.55L94.06,371Z" transform="translate(-42.18 -15.34)"/><path class="cls-1" d="M93,352.4l1.73.54,3.39,6.86,1.72-5.56,1.32.4-2.38,7.7L97,361.81l-3.41-6.87-1.53,4.95-1.32-.41Z" transform="translate(-42.18 -15.34)"/><path class="cls-1" d="M95.15,344.89l9.32-1.83-.62,2.16-2.09.42-1.34,4.68L102,351.7l-.56,2-7-6.47Zm4.12,4.4,1-3.38-4,.68Z" transform="translate(-42.18 -15.34)"/><path class="cls-1" d="M97.17,337.38l3.58.91-2.69-4.38.57-2.26,2.77,4.55,5.54-2.89-.62,2.43-5.26,2.63,4.31,1.09-.46,1.84-8.2-2.08Z" transform="translate(-42.18 -15.34)"/><path class="cls-1" d="M100.25,324.63c.46-2.06,1.45-3,2.93-2.69,1.27.29,1.84,1.23,1.62,2.75h0c.44-1.65,1.18-1.8,2.34-1.67a7.28,7.28,0,0,0,2.08.15l-.44,2a4.87,4.87,0,0,1-1.35-.1c-1.55-.26-2-.07-2.44,1.76l-.45,2,3.26.73-.41,1.85-8.26-1.84Zm3.57,1.49c.29-1.3,0-2-.81-2.2s-1.24.25-1.53,1.56l-.57,2.55,2.37.53Z" transform="translate(-42.18 -15.34)"/><path class="cls-1" d="M102.76,312.59l1.35.27-.93,4.71,1.95.39.9-4.54,1.36.27-.9,4.54,2.28.45,1-4.92,1.36.27-.24,1.22c.39.95.7,1.45,1,1.51s.5-.27.6-.76a2.35,2.35,0,0,0,0-.75l.58-.09a5.3,5.3,0,0,1-.11,1.46c-.21,1.06-.62,1.5-1.09,1.41s-1-.92-1.2-1.88l-.93,4.66-8.3-1.64Z" transform="translate(-42.18 -15.34)"/><path class="cls-1" d="M102.17,303.42l1.27,2.27-.23,1.32-1.38-1.62Zm4.83.69c-.91-.13-1.68.73-1.89,1.95a3.08,3.08,0,0,0,6,1,2.09,2.09,0,0,0-1.12-2.57l.34-1.94c1.9.45,2.57,2.29,2.12,4.88-.5,2.91-2.37,4.3-5.18,3.81s-4.08-2.53-3.57-5.44c.38-2.21,1.62-3.95,3.58-3.67Z" transform="translate(-42.18 -15.34)"/><path class="cls-1" d="M109,289.62c-1-.06-1.58.54-1.77,1.93-.1.81.18,1.69.94,1.79.58.08,1-.25,1.18-1.08l.65-2.36c.45-1.61,1.44-2.27,2.65-2.12,1.76.24,2.55,1.91,2.18,4.7-.32,2.46-1.59,3.81-3.36,3.58l.24-1.89c1.09,0,1.73-.7,1.91-2.11s-.36-2.21-1-2.29-.93.29-1.19,1.23l-.46,1.69c-.52,2-1.46,2.81-2.73,2.65-1.81-.24-2.51-2-2.23-4.12.31-2.33,1.43-3.65,3.24-3.48Z" transform="translate(-42.18 -15.34)"/><path class="cls-1" d="M107.23,282.88l8.4,1-.21,1.89-8.41-1Z" transform="translate(-42.18 -15.34)"/><path class="cls-1" d="M108.17,273.56l1.37.13-.46,4.78,2,.2.45-4.61,1.37.13-.44,4.61,2.31.22.48-5,1.38.13-.12,1.24c.49.91.84,1.38,1.17,1.41s.47-.32.51-.82a2.11,2.11,0,0,0,0-.75l.57-.14a5.65,5.65,0,0,1,0,1.46c-.1,1.07-.47,1.55-1,1.51s-1.12-.82-1.38-1.75l-.46,4.73-8.42-.82Z" transform="translate(-42.18 -15.34)"/><path class="cls-1" d="M108.78,265.56l6.72-1.89v0L109,261.1l.12-2.38,6.72-1.94v0l-6.48-2.54.1-1.89,8.29,3.44-.12,2.32-6.87,2v0l6.62,2.62-.12,2.28-8.61,2.58Z" transform="translate(-42.18 -15.34)"/><path class="cls-1" d="M118.2,246.58c0,3.2-1.64,4.91-4.53,4.86s-4.43-1.82-4.37-5,1.64-4.9,4.53-4.86S118.25,243.38,118.2,246.58Zm-4.4-3a3,3,0,1,0,3,3A2.75,2.75,0,0,0,113.8,243.54Z" transform="translate(-42.18 -15.34)"/><path class="cls-1" d="M109.55,237.45l3.69,0-3.73-3.54,0-2.33,3.86,3.69,4.6-4.23,0,2.51-4.41,3.89,4.45-.05,0,1.9-8.46.1Z" transform="translate(-42.18 -15.34)"/><path class="cls-1" d="M107,222.94l1.72,2,0,1.34-1.69-1.3Zm11,1.9c.12,3.2-1.36,5-4.26,5.11s-4.52-1.57-4.64-4.76,1.36-5,4.26-5.1S117.8,221.65,117.93,224.84Zm-4.57-2.79a3,3,0,1,0,3.19,2.85A2.76,2.76,0,0,0,113.36,222.05Z" transform="translate(-42.18 -15.34)"/><path class="cls-1" d="M108.8,216.29l3.16-.21-1.34-2.16,1.19-.09,1.35,2.17,2.7-.18-.32-4.65,1.38-.09.45,6.54-3.08.2.54.86-1.19.08-.54-.86-4.18.29Z" transform="translate(-42.18 -15.34)"/><path class="cls-1" d="M107.69,202.53l5.94-5.46v0l-6.46.69L107,196l8.42-.9.27,2.54-6.05,5.58v0l6.57-.7.18,1.7-8.41.9Z" transform="translate(-42.18 -15.34)"/><path class="cls-1" d="M106,187.8l7.86-5.34.28,2.23-1.77,1.2.61,4.84,2,.64.25,2-8.93-3.23Zm5.52,2.42-.43-3.48-3.44,2.2Z" transform="translate(-42.18 -15.34)"/><path class="cls-1" d="M104.61,174.87l5.11-.47c1.9-.17,3.62.56,3.88,3.42.22,2.33-.73,3.78-2.64,4l-.18-1.89a1.58,1.58,0,0,0,1.46-1.85c-.12-1.31-1-1.91-2.44-1.77l-5,.46Z" transform="translate(-42.18 -15.34)"/><path class="cls-1" d="M104.23,169.28l6.21-5.15v0l-6.49.37-.09-1.71,8.45-.48.14,2.55-6.32,5.28v0l6.6-.37.09,1.71-8.44.47Z" transform="translate(-42.18 -15.34)"/><path class="cls-1" d="M112.42,155c0,3.2-1.53,4.95-4.42,5s-4.47-1.71-4.49-4.9,1.53-4.94,4.42-5S112.4,151.8,112.42,155ZM108,152.07A3,3,0,1,0,111,155,2.75,2.75,0,0,0,108,152.07Z" transform="translate(-42.18 -15.34)"/><path class="cls-1" d="M103.74,146.05l6.74-1.84v0l-6.47-2.6.15-2.38,6.73-1.89v0l-6.47-2.59.12-1.89,8.26,3.51-.14,2.32-6.88,1.95v0l6.6,2.68-.14,2.28-8.63,2.5Z" transform="translate(-42.18 -15.34)"/><path class="cls-1" d="M108.07,125.19c-1-.07-1.58.54-1.77,1.93-.11.8.18,1.69.93,1.79.58.08,1-.25,1.19-1.08l.66-2.36c.45-1.61,1.43-2.27,2.64-2.11,1.77.24,2.55,1.92,2.18,4.7-.33,2.47-1.6,3.81-3.38,3.57l.25-1.88c1.09,0,1.73-.7,1.92-2.11s-.36-2.21-1-2.29-.93.28-1.19,1.23l-.46,1.69c-.53,1.95-1.48,2.81-2.74,2.64-1.82-.25-2.51-2-2.22-4.13.31-2.32,1.43-3.64,3.24-3.47Z" transform="translate(-42.18 -15.34)"/><path class="cls-1" d="M107.52,113.05l1.79.32,4.19,6.41,1-5.73,1.36.24-1.43,7.92-1.77-.31-4.21-6.41-.92,5.1-1.36-.25Z" transform="translate(-42.18 -15.34)"/><path class="cls-1" d="M108.48,108.79l4.16-1.72-2.86-3.48.54-2.18,4.1,5.22,3.13.78-.46,1.84-3.13-.78-6.08,2.73Z" transform="translate(-42.18 -15.34)"/><path class="cls-1" d="M115.73,93.54c-.87-.28-1.76.46-2.16,1.62a3.08,3.08,0,0,0,5.81,2c.42-1.24.13-2.27-.71-2.72l.64-1.86c1.81.74,2.19,2.66,1.34,5.14-1,2.8-3,3.88-5.72,3s-3.63-3.14-2.68-5.93c.73-2.13,2.23-3.65,4.12-3.07Z" transform="translate(-42.18 -15.34)"/><path class="cls-1" d="M115.66,86.17l3.14,1.4,1.88-4.21L117.53,82l.78-1.74L126,83.67l-.77,1.73-3.32-1.48-1.87,4.21,3.32,1.48-.78,1.73-7.73-3.44Z" transform="translate(-42.18 -15.34)"/><path class="cls-1" d="M125.81,66.6l1.19.71-1.64,2.77,6.1,3.6-1,1.63-6.09-3.59-1.64,2.77-1.19-.7Z" transform="translate(-42.18 -15.34)"/><path class="cls-1" d="M130.33,60.24c1.24-1.7,2.54-2.18,3.76-1.29,1,.77,1.19,1.86.38,3.17h0c1.06-1.33,1.8-1.17,2.81-.58a8.15,8.15,0,0,0,1.85,1l-1.21,1.64a5,5,0,0,1-1.19-.63c-1.31-.86-1.84-.88-2.94.63l-1.22,1.67,2.7,2-1.12,1.53-6.83-5ZM133,63c.79-1.08.84-1.83.14-2.34s-1.24-.27-2,.81l-1.54,2.11,2,1.43Z" transform="translate(-42.18 -15.34)"/><path class="cls-1" d="M138.9,50l1,.93-3.2,3.57,1.48,1.33,3.09-3.44,1,.92-3.09,3.45L141,58.33l3.35-3.73,1,.92-4.62,5.15L134.43,55Z" transform="translate(-42.18 -15.34)"/><path class="cls-1" d="M143.41,45.64l7.88,1.72,0,0L147,42.46l1.28-1.13,5.58,6.36L152,49.38l-8.06-1.73v0l4.36,5L147,53.76,141.4,47.4Z" transform="translate(-42.18 -15.34)"/><path class="cls-1" d="M154.46,36.73c2.4-1.65,4.72-1.35,6.28.92,1.12,1.62,1.33,4.12-1.46,6L155.93,46l-4.8-7Zm3.8,6a2.71,2.71,0,0,0,.77-4.07c-1-1.47-2.51-1.64-4-.61l-1.53,1.06,3.23,4.69Z" transform="translate(-42.18 -15.34)"/><path class="cls-1" d="M169.21,37.77c-2.82,1.51-5.08.95-6.44-1.61s-.56-4.75,2.26-6.25,5.08-.94,6.44,1.61S172,36.27,169.21,37.77Zm-3.05-10.69-1,2.4-1.18.63.43-2.09Zm3.58,5.37a3,3,0,1,0-5.24,2.79,3,3,0,1,0,5.24-2.79Z" transform="translate(-42.18 -15.34)"/><path class="cls-1" d="M173.61,25.8l4.44,5.38h0l-.3-7,2.24-.85,4.48,5.37h0l-.31-7,1.78-.67.2,9-2.18.83-4.6-5.47h0l.28,7.11-2.14.82-5.84-6.84Z" transform="translate(-42.18 -15.34)"/><path class="cls-1" d="M200.11,26.66c-3.14.63-5.15-.56-5.72-3.39s.84-4.71,4-5.34,5.15.56,5.72,3.4S203.24,26,200.11,26.66Zm2-4.95a3,3,0,1,0-5.82,1.17,3,3,0,1,0,5.82-1.17Z" transform="translate(-42.18 -15.34)"/><path class="cls-1" d="M210.31,16.27c2.9-.31,4.79,1.06,5.08,3.8.21,1.95-.79,4.25-4.16,4.61l-4,.43-.9-8.41Zm.49,7.07a2.72,2.72,0,0,0,2.62-3.22,2.63,2.63,0,0,0-3.25-2.44l-1.85.19.61,5.67Z" transform="translate(-42.18 -15.34)"/><path class="cls-1" d="M229.67,15.34l0,5.13c0,1.9-.86,3.56-3.73,3.58-2.33,0-3.7-1.05-3.75-3h1.9a1.59,1.59,0,0,0,1.72,1.61c1.31,0,2-.8,2-2.28l0-5Z" transform="translate(-42.18 -15.34)"/><path class="cls-1" d="M239.53,15.85l-.08,1.38-4.8-.29-.12,2,4.62.28-.08,1.38-4.62-.28-.14,2.31,5,.31-.09,1.38-6.9-.42.51-8.45Z" transform="translate(-42.18 -15.34)"/><path class="cls-1" d="M245.32,16.44l4,7h0L250.1,17l1.7.22-1.05,8.39-2.54-.32-4.05-7.17h0l-.82,6.56-1.7-.22,1-8.39Z" transform="translate(-42.18 -15.34)"/><path class="cls-1" d="M257.68,18.33l3.41,7.31h0l1.28-6.36,1.68.33-1.68,8.3-2.5-.51L256.4,20h0l-1.31,6.48-1.67-.34,1.67-8.3Z" transform="translate(-42.18 -15.34)"/><path class="cls-1" d="M268.82,20.8l1.61,4.2L274,22.23l2.17.61-5.33,3.95L270,29.9l-1.83-.51.86-3.11-2.56-6.15Z" transform="translate(-42.18 -15.34)"/><path class="cls-1" d="M289,27.4l-.52,1.29-4.1-1.64L283.61,29l3.87,1.54L287,31.8l-3.88-1.55-1.34,3.37-1.77-.7,3.14-7.86Z" transform="translate(-42.18 -15.34)"/><path class="cls-1" d="M296.35,31l-.16,9.5-2-1.06,0-2.13L289.94,35l-1.68,1.26-1.8-1,7.78-5.44Zm-5.16,3.12,3.1,1.65.18-4.07Z" transform="translate(-42.18 -15.34)"/><path class="cls-1" d="M304,35.49,299.4,42.6l-1.6-1,4.59-7.11Z" transform="translate(-42.18 -15.34)"/><path class="cls-1" d="M311.08,40.54c1.67,1.28,2.12,2.59,1.2,3.79-.79,1-1.88,1.15-3.17.31l0,0c1.31,1.09,1.14,1.83.53,2.82a7.94,7.94,0,0,0-1,1.82L307,48.06a5,5,0,0,1,.67-1.17c.89-1.3.92-1.82-.57-3l-1.64-1.25-2,2.65-1.5-1.16,5.14-6.71Zm-2.86,2.61c1.06.81,1.81.88,2.34.19s.29-1.23-.77-2l-2.07-1.59-1.48,1.92Z" transform="translate(-42.18 -15.34)"/><path class="cls-1" d="M317,45.46l-.51,4.47,4.43-.82,1.65,1.54L316,51.7l-2.19,2.36-1.39-1.3,2.2-2.35.55-6.64Z" transform="translate(-42.18 -15.34)"/><path class="cls-1" d="M319,56.88,317.79,58l-1.14-1.19,1.18-1.13Z" transform="translate(-42.18 -15.34)"/><path class="cls-1" d="M333.82,63.93l-4.05,3.16c-1.5,1.16-3.35,1.47-5.12-.79-1.43-1.84-1.41-3.58.08-4.79L325.9,63a1.59,1.59,0,0,0-.23,2.35c.81,1,1.84,1.08,3,.17l4-3.09Z" transform="translate(-42.18 -15.34)"/><path class="cls-1" d="M338.91,71.34l-4.72,8.25L333,77.7,334,75.85l-2.66-4.08-2.08.29-1.11-1.7,9.44-1Zm-6,.24,1.92,3L336.92,71Z" transform="translate(-42.18 -15.34)"/><path class="cls-1" d="M345.62,88.87c.81-.43.92-1.58.38-2.68a3.08,3.08,0,0,0-5.51,2.7c.57,1.16,1.51,1.7,2.41,1.42l.87,1.77c-1.81.75-3.43-.34-4.58-2.7-1.3-2.65-.6-4.88,2-6.13s4.78-.35,6.08,2.31c1,2,1,4.15-.75,5.07Z" transform="translate(-42.18 -15.34)"/><path class="cls-1" d="M350.82,93.86l-7.76,3.38-.76-1.74,7.76-3.38Z" transform="translate(-42.18 -15.34)"/><path class="cls-1" d="M354.46,103l-1.29.5-1.72-4.48-1.86.71,1.66,4.32-1.29.5-1.66-4.32-2.17.83,1.81,4.68-1.29.5-.45-1.16c-.84-.59-1.37-.85-1.68-.73s-.27.49-.09,1a2.23,2.23,0,0,0,.37.65l-.44.38a5.58,5.58,0,0,1-.69-1.29c-.38-1-.27-1.6.18-1.77s1.36.22,2,.94l-1.71-4.43,7.9-3Z" transform="translate(-42.18 -15.34)"/><path class="cls-1" d="M357.61,112.85l-3.56,1,4.51,2.46.63,2.25L354.52,116l-3.37,5.27-.67-2.42,3.27-4.89-4.29,1.19-.51-1.83L357.1,111Z" transform="translate(-42.18 -15.34)"/><path class="cls-1" d="M361,126.27c.45,2.06-.05,3.34-1.52,3.67-1.27.28-2.19-.34-2.63-1.81h0c.3,1.68-.31,2.13-1.41,2.5a7.73,7.73,0,0,0-2,.73l-.43-2a5.08,5.08,0,0,1,1.26-.47c1.52-.41,1.88-.79,1.48-2.62l-.44-2L352,125l-.41-1.86,8.26-1.81Zm-3.86.15c.28,1.3.81,1.84,1.65,1.65s1-.75.74-2.06l-.56-2.55-2.37.52Z" transform="translate(-42.18 -15.34)"/><path class="cls-1" d="M363.17,139.14l-1.36.2-.72-4.75-2,.29.69,4.58-1.37.21-.68-4.58-2.3.34.74,5-1.36.21-.19-1.23c-.69-.76-1.15-1.13-1.47-1.08s-.38.42-.31.92a2.36,2.36,0,0,0,.23.71l-.51.28a5,5,0,0,1-.39-1.41c-.16-1.07.07-1.62.55-1.69s1.28.51,1.77,1.35l-.71-4.69,8.37-1.25Z" transform="translate(-42.18 -15.34)"/><path class="cls-1" d="M361.56,149.07c.91-.12,1.42-1.15,1.3-2.38a3.08,3.08,0,0,0-6.11.59c.13,1.29.82,2.12,1.77,2.18l.18,2c-2,.07-3.09-1.52-3.34-4.14-.28-2.94,1.16-4.77,4-5s4.61,1.36,4.89,4.3c.21,2.24-.52,4.24-2.49,4.49Z" transform="translate(-42.18 -15.34)"/><path class="cls-1" d="M364.87,160.23l-1.38.06-.21-4.8-2,.09.2,4.62-1.38.06-.2-4.63-2.32.1.22,5-1.38.05-.06-1.24c-.61-.83-1-1.24-1.35-1.23s-.42.38-.4.89a2.38,2.38,0,0,0,.15.73l-.54.22a5.49,5.49,0,0,1-.24-1.44c0-1.08.25-1.61.73-1.63s1.22.65,1.61,1.54l-.2-4.74,8.45-.37Z" transform="translate(-42.18 -15.34)"/><path class="cls-1" d="M358.08,166h-1.64v-1.64h1.64Zm6.82,0-6.12-.21v-1.31l6.12-.26Z" transform="translate(-42.18 -15.34)"/><path class="cls-1" d="M364.14,182.47l-1.82-.13-4.82-5.94-.44,5.81-1.38-.11.61-8,1.79.13,4.85,5.94.39-5.17,1.38.11Z" transform="translate(-42.18 -15.34)"/><path class="cls-1" d="M363.19,190.87l-8.94,3.21.29-2.23,2-.72.63-4.84-1.77-1.13.26-2,7.84,5.36Zm-4.74-3.73-.45,3.49,3.88-1.27Z" transform="translate(-42.18 -15.34)"/><path class="cls-1" d="M361.91,199.26l-3.63-.67,3,4.18-.42,2.3-3.07-4.36L352.44,204l.45-2.46,5.08-3-4.38-.8.34-1.87,8.32,1.53Z" transform="translate(-42.18 -15.34)"/><path class="cls-1" d="M359.05,212.78c-.49,2.05-1.5,3-3,2.64-1.27-.31-1.82-1.26-1.58-2.78h0c-.46,1.63-1.21,1.78-2.37,1.62a7.57,7.57,0,0,0-2.07-.18l.47-2a5.29,5.29,0,0,1,1.35.13c1.54.29,2,.11,2.47-1.72l.48-2-3.25-.78.45-1.85,8.22,2Zm-3.54-1.55c-.32,1.3-.08,2,.77,2.21s1.24-.23,1.56-1.53l.61-2.54-2.36-.57Z" transform="translate(-42.18 -15.34)"/><path class="cls-1" d="M355.56,225.25l-1.33-.39,1.38-4.61-1.91-.57-1.33,4.44-1.32-.39,1.32-4.44-2.22-.66-1.44,4.8-1.32-.39.35-1.19c-.3-1-.56-1.52-.87-1.61s-.52.22-.67.71a2.55,2.55,0,0,0-.1.74l-.58,0a5.3,5.3,0,0,1,.25-1.44c.3-1,.75-1.44,1.21-1.3s.95,1,1,2l1.35-4.55,8.11,2.42Z" transform="translate(-42.18 -15.34)"/><path class="cls-1" d="M349.85,233.56c.86.28,1.77-.44,2.18-1.59a3.08,3.08,0,0,0-5.77-2.08c-.44,1.23-.17,2.27.66,2.73l-.67,1.85c-1.8-.77-2.14-2.7-1.25-5.17,1-2.78,3.08-3.82,5.76-2.86s3.58,3.19,2.58,6c-.76,2.12-2.28,3.62-4.16,3Zm4.63,1.51-.86-2.46.45-1.26,1.09,1.84Z" transform="translate(-42.18 -15.34)"/><path class="cls-1" d="M344.1,247.78c1,.37,1.67-.05,2.25-1.33.34-.73.32-1.66-.37-2-.53-.24-1,0-1.45.69l-1.31,2.07c-.9,1.4-2,1.75-3.15,1.24-1.62-.74-1.88-2.57-.71-5.13,1-2.26,2.63-3.17,4.26-2.43l-.78,1.73c-1-.34-1.86.17-2.45,1.46s-.3,2.22.29,2.48,1,0,1.5-.83l.93-1.48c1.08-1.71,2.23-2.26,3.39-1.73,1.66.76,1.82,2.62.92,4.59-1,2.14-2.43,3.07-4.11,2.38Z" transform="translate(-42.18 -15.34)"/><path class="cls-1" d="M343.44,255l-7.6-3.73.84-1.7,7.6,3.72Z" transform="translate(-42.18 -15.34)"/><path class="cls-1" d="M338.82,263.72l-1.21-.66,2.29-4.22-1.75-.95L335.94,262l-1.22-.66,2.21-4.06-2-1.11-2.4,4.41-1.22-.67.6-1.09c-.1-1-.24-1.59-.53-1.75s-.55.11-.79.55a2.14,2.14,0,0,0-.25.71l-.58-.09a5.07,5.07,0,0,1,.54-1.36c.51-.95,1-1.25,1.46-1a2.38,2.38,0,0,1,.59,2.15l2.27-4.17,7.43,4Z" transform="translate(-42.18 -15.34)"/></svg>